/* XPM */
static char *_c18e485f08d40d9f4af5a4872a4fdf7rqTpUEqB5PcudTFX[] = {
/* columns rows colors chars-per-pixel */
"64 64 9 1 ",
"  c #73275C",
". c #EB564B",
"X c #F0F726",
"o c #FF9166",
"O c #4DA6FF",
"+ c #66FFE3",
"@ c #93E6CC",
"# c #B9F5E2",
"$ c white",
/* pixels */
"@@@@@@@@@@@@@@@@@@@@@@@@@@@@@@@@@@@@@@@@@@@@@@@@@@@@@@@@@@@@@@@@",
"@@@@@@@@@@@@@@@@@@@@@@@@@@@@@@@@@@@@@@@@@@@@@@@@@@@@@@@@@@@@@@@@",
"@@@@@@@@@@@@@@@@@@@@@@@@@@@@@@@@@@@@@@@@@@@@@@@@@@@@@@@@@@@@@@@@",
"@@@@@@@@@@@@@@@@@@@@@@@@@@@@@@@@@@@@@@@@@@@@@@@@@@@@@@@@@@@@@@@@",
"@@@@@@@@@@@@@@@@@@@@@@@@@@@@@@@@@@@@@@@@@@@@@@@@@@@@@@@@@@@@@@@@",
"@@@@@@@@@@@@@@@@@@@@@@@@@@@@@@@@@@@@@@@@@@@@@@@@@@@@@@@@@@@@@@@@",
"@@@@@@@@@@@@@@@@@@@@@@@@@@@#@@@#@@@@@@@@@@@@@@@@@@@@@@@@@@@@@@@@",
"@@@@@@@@@@@@@@@@@@@@@@@@@@@@@@@@@@@@@@@@@@@@@@@@@@@@@@@@@@@@@@@@",
"@@@@@@@@@@@@@@@@@@@@@@@@@@@@@@@@@@@@@@@@@@@@@@@@@@@@@@@@@@@@@@@@",
"@@@@@@@@@@@@@@@@@@@@@@@@@@@@$$$$$$$$$@@@@@@@@@@@@@@@@@@@@@@@@@@@",
"@@@@@@@@@@@@@@@@@@@@@@@@@$$$+++$+++++$$$@@@@@@@@@@@@@@@@@@@@@@@@",
"@@@@@@@@@@@@@@@@@@@@@@@$$+++++++++++++++$$@@@@@@@@@@@@@@@@@@@@@@",
"@@@@@@@@@@@@@@@@@@@@@$$++++++++#########++$$@@@@@@@@@@@@@@@@@@@@",
"@@@@@@@@@@@@@@@@@@@@$+++++++$$##############$@@@@@@@@@@@@@@@@@@@",
"@@@@@@@@@@@@@@@@@@@$+++++$$$$$$##############$@@@@@@@@@@@@@@@@@@",
"@@@@@@@@@@@@@@@@@@$++++$$$$$$$$###############$@@@@@@@@@@@@@@@@@",
"@@@@@@@@@@@@@@@@@$++++$$$$$$$$$###############+$@@@@@@@@@@@@@@@@",
"@@@@@@@@@@@@@@@@$++++$$$$$$$$$###########$$$##++$@@@@@@@@@@@@@@@",
"@@@@@@@@@@@@@@@$++++$$$$$$$$###########$$$$$$#+++$@@@@@@@@@@@@@@",
"@@@@@@@@@@@@@@@$+++$$$$$$##############$$$$$$$+++$@@@@@@@@@@@@@@",
"@@@@@@@@@@@@@@$++++$$$$###############$$$$$$$$++++$@@@@@@@@@@@@@",
"@@@@@@@@@@@@@@$++++$$$$###############$$$$$$$$++++$@@@@@@@@@@@@@",
"@@@@@@@@@@@@@$++++$$$###################OO$$$$+++++$@@@@@@@@@@@@",
"@@@@@@@@@@@@@$++++$$####################OOO$$$+++++$@@@@@@@@@@@@",
"@@@@@@@@@@@@@$+++$$OOO##################OOO$$OO++++$@@@@@@@@@@@@",
"@@@@@@@@@@@@$++++$$OOO#################OOOO$OOO+++++$@@@@@@@@@@@",
"@@@@@@@@@@@@$+++++OOOO##################OOOOOOO+++++$@@@@@@@@@@@",
"@@@@@@@@@@ooo+++++OOO###################+OOOOOO+++++$@@@@@@@@@@@",
"@@@@@@@XXoooooo+++OOO++++#############+++++OOO++++++oooo@XX@@@@@",
"@@@@@@oXXooooooo++++++++++++++++++++++++++++++++++++ooooooo@@@@@",
"@@oooooooooooooooo+++++++++++++++++++++++++++++++++oooooooooooo@",
"ooooooooooooooooooo+++++++++++++++++++++++++++++++ooooooXXooooo@",
"@@....oooooooXXooooooo+++++++++++++++++++++++++oooooooooXX....@@",
"@@@@.....ooooXXooooooooooooo+++++++++++ooooooooooooooooo.....@@@",
"@@@@@@.......ooooooooooooooooooooooooooooooooooooooXXoo....@@@@@",
"@@@@@@@.........oooooooooooooooooooooooooooooooooooXX....@@@@@@@",
"@@@@@@@@@..........ooooXXoooooooooooooooooXXoooooo.....@@@@@@@@@",
"@@@@@@@@@@@............XXoooooooXXXoooooooXXooo......@@@@@@@@@@@",
"@@@@@@@@@@@@ ...................XXX................ @@@@@@@@@@@@",
"@@@@@@@@@@@    ..................................    @@@@@@@@@@@",
"@@@@@@@@@@    @@@@@............................@@     @@@@@@@@@@",
"@@@@@@@@@   @@@@@@@@@........................@@@@#@   @@@@@@@@@@",
"@@@@@@@@@   @@@@@@@@@........................@@@@#@   @@@@@@@@@@",
"@@@@@@@@@   @@@@@@@@@@@  ..................  @@@@@@   @@@@@@@@@@",
"@@@@@@@@@   @@@@@@@@@@@   @@@@@@..........   @@@@@@   @@@@@@@@@@",
"@@@@@@@@@@   @@@@@@@@@    @@@@@@@@@@@@@@@@   @@@@@   @@@@@@@@@@@",
"@@@@@@@@@@@  @@@@@@@@@   @@@@@@@@@@@@@@@@@@   @@@@  @@@@@@@@@@@@",
"@@@@@@@@@@@@ @@@@@@@@@  @@@@@@@@@@@@@@@@@@@   @@@@  @@@@@@@@@@@@",
"@@@@@@@@@@@@  @@@@@@@@  @@@@@@@@@@@@@@@@@@@@  @@@@ @@@@@@@@@@@@@",
"@@@@@@@@@@@@@ @@@@@@@@  @@@@@@@@@@@@@@@@@@@@  @@@@   @@@@@@@@@@@",
"@@@@@@@@@@@@@ @@@@@@@@  @@@@@@@@@@@@@@@@@@@@  @@@@       @@@@@@@",
"@@@@@@@       @@@@@@@@  @@@@@@@@@@@@@@@@@@@@  @@@@@     @@@@@@@@",
"@@@@@@@     @@@@@@@@@@  @@@@@@@@@@@@@@@@@@@@  @@@@@@@@@@@@@@@@@@",
"@@@@@@@@@@@@@@@@@@@@@@  @@@@@@@@@@@@@@@@@@@@   @@@@@@@@@@@@@@@@@",
"@@@@@@@@@@@@@@@@@@@@@  @@@@@@@@@@@@@@@@@@@@@   @@@@@@@@@@@@@@@@@",
"@@@@@@@@@@@@@@@@@@@@   @@@@@@@@@@@@@@@@@@@@@@   @@@@@@@@@@@@@@@@",
"@@@@@@@@@@@@@@@@@@     @@@@@@@@@@@@@@@@@@@@@@   @@@@@@@@@@@@@@@@",
"@@@@@@@@@@@@@@@@@    @@@@@@@@@@@@@@@@@@@@@@@@@  @@@@@@@@@@@@@@@@",
"@@@@@@@@@@@@@@@@@@@@@@@@@@@@@@@@@@@@@@@@@@@@@@@  @@@@@@@@@@@@@@@",
"@@@@@@@@@@@@@@@@@@@@@@@@@@@@@@@@@@@@@@@@@@@@@@@@@@@@@@@@@@@@@@@@",
"@@@@@@@@@@@@@@@@@@@@@@@@@@@@@@@@@@@@@@@@@@@@@@@@@@@@@@@@@@@@@@@@",
"@@@@@@@@@@@@@@@@@@@@@@@@@@@@@@@@@@@@@@@@@@@@@@@@@@@@@@@@@@@@@@@@",
"@@@@@@@@@@@@@@@@@@@@@@@@@@@@@@@@@@@@@@@@@@@@@@@@@@@@@@@@@@@@@@@@",
"@@@@@@@@@@@@@@@@@@@@@@@@@@@@@@@@@@@@@@@@@@@@@@@@@@@@@@@@@@@@@@@@"
};
