/* XPM */
static char *_5e4e727c61545bb97d0b2fc7a9684d9djfudaqJONvkda6A[] = {
/* columns rows colors chars-per-pixel */
"64 64 6 1 ",
"  c #EB564B",
". c #3CA370",
"X c #F0F726",
"o c #8FDE5D",
"O c #4DA6FF",
"+ c #93E6CC",
/* pixels */
"++++++++++++++++++++++++++++++++++++++++++++++++++++++++++++++++",
"++++++++++++++++++++++++++++++++++++++++++++++++++++++++++++++++",
"++++++++++++++++++++++++++++++++++++++++++++++++++++++++++++++++",
"++++++++++++++++++++++++++++++++++++++++++++++++++++++++++++++++",
"++++++++++++++++O+++++++++++++++++++++++++++++++++++++++++++++++",
"++++++++++++++++++++++++++++++++++++++++++++++++++++++++++++++++",
"++++++++++++++++++++++++++++++++++++++++++++++++++++++++++++++++",
"++++++++++++++++++++++++++++++++++++++++++++++++++++++++++++++++",
"++++++++++++++++++++++++++++++++++++++++++++++++++++++++++++++++",
"++++++++++++++++++++++++++++++++++++++++++++++++++++++++++++++++",
"++++++XX++++++++++++++++++++++++++++++++++++++++++++++++++++++++",
"++++++XX++++++++++++++++++++++++++++++++++.+++++++++++++++++++++",
"+++++++++++++++++++++++++++++++++++++++XX+.+++++++++++++++++++++",
"+++++++++++++++++++++++++++++++++++++++X...+++++++++++++++++++++",
"++++++++++++++++++++++++++++++++++++++++...+++++++++++++++++++++",
"++++++++++++++++++++++++++++++++++++++++...++++++++++++++++.++++",
"+++++++++++++++++++++++++++++++++++++++++.+++++++++++++++++..+++",
"+++++++++++++++++++++++++++++++++++++++++++++++++++++++++++..+++",
"++++++++++++++++++++++++++++++++++++++++++++++++++++++++++++.+++",
"+++++++++++o++++++++++++++++++++++++++++++++++++++++++++++++++++",
"+++++++++++o+++o++++++++++++++++++O+++++++++++++++++++++++++++++",
"+++++++++++o+o+o++++++++++++++++++++++++++++++++++++++++++++++++",
"+++++++++++oooooo+++++++++++++++++++++++++++++++++++++++++++++++",
"++++++++++++ooooo+++++++++++++++++++++++++++++++++++  ++++++++++",
"++++++++++++ooooo+++++++++++++++++++++++++++++++++++  ++++++++++",
"++++++++++++ooooo+++++++++++++++++++++++++++++++++++++++++++++++",
"++++++++++++ooooo+++++++++++++++++++++++++++++++++++++++++++++++",
"+++++++++++++ooo++++++++++++++++++++++++++++++++++++++++++++++++",
"++++++++++++++oo++++++++++++++++++++++++++++++++++++++++++++++++",
"++++++++++++++o+++++++++++++++++++++++++++++++++++++++++++++++++",
"++++++++++++++++++++++++++++++++++++++++++++++++++++++++++++++++",
"++++++++++++++++++++++++++++++++++++++++++++++++++++++++++++++++",
"+++++++++++++++++++ ++++++++++++++++++++++++++++++++++++++++++++",
"++++++++++++++++++++++++++++++++++++++oo++++++++++++++++++++++++",
"++++++++++++++++++++++++++++++++++++++oo+++++++++++++++++++++O++",
"++++++++++++++++++++++++++++++++++++++oo++++++++++++++++++++++++",
"+++++++++++++++++++++++++++++++++++++++o++++++++++++++++++++++++",
"++++++++++++++++++++++++++++++++++++++++++++++++++++++++++++++++",
"++++++++++++++++++++++++++++++++++++++++++++++++++++++++++++++++",
"++++++++++++++++++++++++++oo++++++++++++++++++++++++++++++++++++",
"++++++++++++++++++++++++++oo++++++++++++++++++++++++++++++++++++",
"++++++++++++++++++++++++++oo++++++++++++++++++++++++++++++++++++",
"++++++++++++++++++++++++o+ooo+++++++++++++++++++++++++++++++++++",
"++++++++++++++++++++++++ooooo+++++++++++++++++++++++++++++++++++",
"++++++++++++++++++++++++ooooo+++++++++++++++++++++++++++++++++++",
"+++++++++++++++++++++++++oooo+++++++++++++++++++++++++++++++++++",
"+++++++++++++++++++++++++ooo++++++++++++++++++++++++++++++++++++",
"++++++o+++++++++++++++++++++++++++++++++++++++++o+++++++++++++++",
"++++++o+++o+++++++++++++++++++++++++++++++++++o+o+++++++++++++++",
"++++++o+++o++++++++++++++++++++++++++++++++++oooo+++++++++++++++",
"++++++oo++o++++++++++++++++++++++++++++++++++oooo+++++++++++++++",
"++++++oo++o+++++++++++++++++++++++++++++++++ooooo+++++++++++++++",
"++++o+ooooo+++++++++++++++++++++++++++++++++ooooo+++++++++++++++",
"++++o+ooooo+++++++++++++++++++++++++++++++++ooooo+++++++++++++++",
"++++o+ooooo+++++++++++++++++++++++++++++++++oooo++++++++++++++++",
"++++oooooo++++++++++++++++++++++++++++++++++oooo++++++++++++++++",
"+++++ooooo++++++++++++++++++++++++++++++++++ooo+++++++++++++++++",
"+++++oooo+++++++++++++++++++++++++++++++++++++++++++++++++++++++",
"++++++oo++++++++++++++++++++++++++++++++++++++++++++++++++++++++",
"++++++++++++++++++++++++++++++++++++++++++++++++++++++XX++++++++",
"++++++++++++++++++++++++++++++++++++++++++++++++++++++XX++++++++",
"++++++++++++++++++++++++++++++++++++++++++++++++++++++++++++++++",
"++++++++++++++++++++++++++++++++++++++++++++++++++++++++++++++++",
"++++++++++++++++++++++++++++++++++++++++++++++++++++++++++++++++"
};
