/* XPM */
static char *_2e86abd9dcd4c27ae7c77f259bac665fd6BK1EZo1iFK2aC[] = {
/* columns rows colors chars-per-pixel */
"64 64 7 1 ",
"  c black",
". c #3CA370",
"X c #8FDE5D",
"o c #CFFF70",
"O c #EAFFB5",
"+ c #93E6CC",
"@ c white",
/* pixels */
"+++++++++++++++++++++++++++           ++++++++++++++++++++++++++",
"+++++++++++++++++++++++    XXXXXXXXXXX    ++++++++++++++++++++++",
"+++++++++++++++++++++  XXXXXXXXXXXXXXXXXXX  ++++++++++++++++++++",
"++++++++++++++++++   XXXXXXXXXXXXXXXXXXXXXXX   +++++++++++++++++",
"+++++++++++++++++ XXXXXXXXXXXXXXXXXXXXXXXXXXXXX ++++++++++++++++",
"+++++++++++++++  XXXXXXXXXXXXXXXXXXXXXXXXXXXXXXX  ++++++++++++++",
"++++++++++++++ XXXXXXXXXXXXXXXXXXXXXXXXXXXXXXXXXXX +++++++++++++",
"+++++++++++++ XXXXXXXXXXXXXXXXXXXXXXXXXooooXXXXXXXX ++++++++++++",
"++++++++++++ XXXXXXXXXXXXXXXXXXXXXXXXooXXXXooXXXXXXX +++++++++++",
"+++++++++++ XXXXXXXXXXXXXXXXXXXXXXXXXXXXXXXXXoXXXXXXX ++++++++++",
"++++++++++ XXXXXXXXXXXXoooooXXXXXXXXXXXXXXXXXXoXXXXXXX +++++++++",
"+++++++++ XXXXXXXXXXXooXXXXXooXXXXXXXXXXXXXXXXXoXXXXXXX ++++++++",
"++++++++ XXXXXXXXXXXoXXXXXXXXXXXXXXXXXXXXXXXXXXXooooXXXX +++++++",
"+++++++ XXXXXXXXXXXoXXXXXXXXXXXXXXXXXXXXXXXXXXXXXXXXooXXX ++++++",
"+++++++ XXXXXXXooooXXXXXXXXXXXXXXXXXXXXXXXXXXXXXXXXXXXoXX ++++++",
"++++++ XXXXXXooXXX      XXXXXXXXXXXXXXXXXXXX    XXXXXXXoXX +++++",
"++++++ XXXXXoXXX  OOOOOO  XXXXXXXXXXXXXXXX  OOOO  XXXXXoXX +++++",
"+++++ XXXXXoXXX OOOOOOOOOO XXXXXXXXXXXXX  OOOOOOOO  XXXXoXX ++++",
"+++++ XXXXXoXX OOOOOOOOOOOO XXXXXXXXXXX OOOOOOOOOOOO XXXoXX ++++",
"++++ XXXXXoXX OOO    OOOOOOO XXXXXXXXXX OOOOOOOOOOOO XXXoXXX +++",
"++++ XXXXXoXX OO    OOOOOOOO XXXXXXXXX OOO     OOOOOO XXoXXX +++",
"++++ XXXXXoX OO   OOOOOOOOOOO XXXXXXX OOO    OOOOOOOOO XoXXX +++",
"+++ XXXXXXXX OO   OOOOOOOOOOO XXXXXXX OO    OOOOOOOOOO oXXXXX ++",
"+++ XXXXXXXX O     OOO OOOOOO XXXXXXX OO    OOOOOOOOOO ooXXXX ++",
"+++ XXXXXXXX O         OOOOOO XXXXXXX OO      OO OOOOO XXoXXX ++",
"+++ XXXXXXXX O         OOOOOO XXXXXXX OO         OOOOO XXXoXX ++",
"+++ XXXXXXXXX O        OOOOO XXXXXXXX OO         OOOOO XXXXoX ++",
"+++ XXXXXXXXX OO      OOOOOO XXXXXXXXX OO        OOOO XXXXXoX ++",
"+++ XXXXXXXXXX OO   OOOOOOO XXXXXXXXXXX OO      OOOO XXXXXXoX ++",
"+++ XXXXXXXXXXX OOOOOOOOOO XXXXXXXXXXXX OOO    OOOOO XXXXXXoX ++",
"+++ XXXXXXooXXXX  OOOOOO  XXXXXXXXXXXXXX  OOOOOOOO  XXooXXXoX ++",
"+++ XXXXXooooXXXXX      XXXXXXXXXXXXXXXXXX  OOOO  XXXooooXoXX ++",
"+++ XXXXooooooXXXXXXXXXXXXXXXXXXXXXXXXXXXXXX    XXXXooooooXXX ++",
"+++ XXXooooooooXXXXXXXXXXXXXXXXXXXXXXXXXXXXXXXXXXXXooooooooXX ++",
"++++ XXooooooooXXXXXXXXXXXXXXXXXXXXXXXXXXXXXXXXXXXXooooooooX +++",
"++++ XXXooo.ooXXXXXXXXXXXXXXXXXXXXXXXXXXXXXXXXXXXXXXooooooXX +++",
"++++ XXXXooooXXXXXXXXXXXXXXXXXXXXXXXXXXXXXXXXXXXXXXXXooooXXX +++",
"+++++ XXXXoo.XXXXXXXXXXXXXXXXXXXXXXXXXXXXXXXXXXXXXXXXXooXXX ++++",
"+++++ XXXXXX.XXXXXXXXXXXXXXXXXXXXXXXXXXXXXXXXXXXXXXXXXXXXXX ++++",
"++++++ XXXXX.XXXXXXXXXXXXXXXXXXXXXXXXXXXXXXXXXXXXXXXXXXXXX +++++",
"++++++ XXXXXX.XXXXXXXXXXXXXXXXXXXXXXXXXXXXXXXXXXXXXXXXXXXX +++++",
"+++++++ XXXXX..XXXXXXXXXXXXXXXXXXXXXXXXXXXXXXXXXXXXXXXXXX ++++++",
"+++++++ XXXXXX..XXXXXXXXXXXXXXXXXXXXXXXXXXXXXXXXXXXXXXXXX ++++++",
"++++++++ XXXXXX.....XXXXXXXXXXXXXXXXXXXXXXXXXXXXXXXXXXXX +++++++",
"+++++++++ XXXXXXXXXXXXXXXXXXXXXXXXXXXXXXXXXXXXXXXXXXXXX ++++++++",
"++++++++++ XXXXXXXXXXXXXXXXXXXXXXXXXXXXXXXXX.XXXXXXXXX +++++++++",
"+++++++++++ XXXXXXXXXXXXXXXXXXXXXXXXXX.XXXXX..XXXXXXX ++++++++++",
"++++++++++++ XXXXXXXXXXXXXXXXXXXXXXXXX..XXX..XXXXXXX +++++++++++",
"+++++++++++++ XXXXXXXXXXXXXXXXXXXXXXXXX.....XXXXXXX ++++++++++++",
"++++++++++++++ XXXXXXXXXXXXXXXXXXXXXXXXXXXXXXXXXXX +++++++++++++",
"+++++++++++++++  XXXXXXXXXXXXXXXXXXXXXXXXXXXXXXX  ++++++++++++++",
"+++++++++++++++++ XXXXXXXXXXXXXXXXXXXXXXXXXXXXX ++++++++++++++++",
"++++++++++++++++++   XXXXXXXXXXXXXXXXXXXXXXX   +++++++++++++++++",
"+++++++++++++++++++++  XXXXXXXXXXXXXXXXXXX  ++++++++++++++++++++",
"+++++++++++++++++++++++    XXXXXXXXXXX    ++++++++++++++++++++++",
"++++++++++++++++++++++++  @           @@ +++++++++++++++++++++++",
"++++++++++++++++++++++++ @@@@@@@@@@@@@@@ +++++++++++++++++++++++",
"++++++++++++++++++++++++   @    @@@@   @ +++++++++++++++++++++++",
"++++++++++++++++++++++++ @@@@@@@@@@@@@@@ +++++++++++++++++++++++",
"++++++++++++++++++++++++     @@@@   @@@  +++++++++++++++++++++++",
"+++++++++++++++++++++++++ @@@@  @@@@@@  ++++++++++++++++++++++++",
"+++++++++++++++++++++++++ @  @@@@@   @@ ++++++++++++++++++++++++",
"+++++++++++++++++++++++++               ++++++++++++++++++++++++",
"++++++++++++++++++++++++++             +++++++++++++++++++++++++"
};
