/* XPM */
static char *_cebff8fc0b746f293b36eda81ef2ad8Kv3fgQlM8nP9kEBQ[] = {
/* columns rows colors chars-per-pixel */
"64 64 6 1 ",
"  c black",
". c #3CA370",
"X c #8FDE5D",
"o c #CFFF70",
"O c #93E6CC",
"+ c white",
/* pixels */
"OOOOOOOOOOOOOOOOOOOOOOOOOOO           OOOOOOOOOOOOOOOOOOOOOOOOOO",
"OOOOOOOOOOOOOOOOOOOOOOO    XXXXXXXXXXX    OOOOOOOOOOOOOOOOOOOOOO",
"OOOOOOOOOOOOOOOOOOOOO  XXXXXXXXXXXXXXXXXXX  OOOOOOOOOOOOOOOOOOOO",
"OOOOOOOOOOOOOOOOOO   XXXXXXXXXXXXXXXXXXXXXXX   OOOOOOOOOOOOOOOOO",
"OOOOOOOOOOOOOOOOO XXXXXXXXXXXXXXXXXXXXXXXXXXXXX OOOOOOOOOOOOOOOO",
"OOOOOOOOOOOOOOO  XXXXXXXXXXXXXXXXXXXXXXXXXXXXXXX  OOOOOOOOOOOOOO",
"OOOOOOOOOOOOOO XXXXXXXXXXXXXXXXXXXXXXXXXXXXXXXXXXX OOOOOOOOOOOOO",
"OOOOOOOOOOOOO XXXXXXXXXXXXXXXXXXXXXXXXXooooXXXXXXXX OOOOOOOOOOOO",
"OOOOOOOOOOOO XXXXXXXXXXXXXXXXXXXXXXXXooXXXXooXXXXXXX OOOOOOOOOOO",
"OOOOOOOOOOO XXXXXXXXXXXXXXXXXXXXXXXXXXXXXXXXXoXXXXXXX OOOOOOOOOO",
"OOOOOOOOOO XXXXXXXXXXXXoooooXXXXXXXXXXXXXXXXXXoXXXXXXX OOOOOOOOO",
"OOOOOOOOO XXXXXXXXXXXooXXXXXooXXXXXXXXXXXXXXXXXoXXXXXXX OOOOOOOO",
"OOOOOOOO XXXXXXXXXXXoXXXXXXXXXXXXXXXXXXXXXXXXXXXooooXXXX OOOOOOO",
"OOOOOOO XXXXXXXXXXXoXXXXXXXXXXXXXXXXXXXXXXXXXXXXXXXXooXXX OOOOOO",
"OOOOOOO XXXXXXXooooXXXXXXXXXXXXXXXXXXXXXXXXXXXXXXXXXXXoXX OOOOOO",
"OOOOOO XXXXXXooXXXXXXXXXXXXXXXXXXXXXXXXXXXXXXXXXXXXXXXXoXX OOOOO",
"OOOOOO XXXXXoXXXXXXXXXXXXXXXXXXXXXXXXXXXXXXXXXXXXXXXXXXoXX OOOOO",
"OOOOO XXXXXoXXXXXXXXXXXXXXXXXXXXXXXXXXXXXXXXXXXXXXXXXXXXoXX OOOO",
"OOOOO XXXXXoXXXXXXXXXXXXXXXXXXXXXXXXXXXXXXXXXXXXXXXXXXXXoXX OOOO",
"OOOO XXXXXoXXXXXXXXXXXXXXXXXXXXXXXXXXXXXXXXXXXXXXXXXXXXXoXXX OOO",
"OOOO XXXXXoXXXXXXXXXXXXXXXXXXXXXXXXXXXXXXXXXXXXXXXXXXXXXoXXX OOO",
"OOOO XXXXXoXXXXXXXXXXXXXXXXXXXXXXXXXXXXXXXXXXXXXXXXXXXXXoXXX OOO",
"OOO XXXXXXXXXXXXXXXXXXXXXXXXXXXXXXXXXXXXXXXXXXXXXXXXXXXoXXXXX OO",
"OOO XXXXXXXXXXXXXXXXXXXXXXXXXXXXXXXXXXXXXXXXXXXXXXXXXXXooXXXX OO",
"OOO XXXXXXXXXXXXXXXXXXXXXXXX XXXXXXXX XXXXXXXXXXXXXXXXXXXoXXX OO",
"OOO XXXXXXXX XXXXXXXXXXXXXXX XXXXXXXX XXXXXXXXXXXXXXX XXXXoXX OO",
"OOO XXXXXXXXX XXXXXXXXXXXXX XXXXXXXXXX XXXXXXXXXXXXX XXXXXXoX OO",
"OOO XXXXXXXXXX XXXXXXXXXXX XXXXXXXXXXXX XXXXXXXXXXX XXXXXXXoX OO",
"OOO XXXXXXXXXXX  XXXXXXX  XXXXXXXXXXXXXX  XXXXXXX  XXXXXXXXoX OO",
"OOO XXXXXXXXXXXXX       XXXXXXXXXXXXXXXXXX       XXXXXXXXXXoX OO",
"OOO XXXXXXooXXXXXXXXXXXXXXXXXXXXXXXXXXXXXXXXXXXXXXXXXXooXXXoX OO",
"OOO XXXXXooooXXXXXXXXXXXXXXXXXXXXXXXXXXXXXXXXXXXXXXXXooooXoXX OO",
"OOO XXXXooooooXXXXXXXXXXXXXXXXXXXXXXXXXXXXXXXXXXXXXXooooooXXX OO",
"OOO XXXooooooooXXXXXXXXXXXXXXXXXXXXXXXXXXXXXXXXXXXXooooooooXX OO",
"OOOO XXooooooooXXXXXXXXXXXXXXXXXXXXXXXXXXXXXXXXXXXXooooooooX OOO",
"OOOO XXXooo.ooXXXXXXXXXXXXXXXXXXXXXXXXXXXXXXXXXXXXXXooooooXX OOO",
"OOOO XXXXooooXXXXXXXXXXXXXXXXXXXXXXXXXXXXXXXXXXXXXXXXooooXXX OOO",
"OOOOO XXXXoo.XXXXXXXXXXXXXXXXXXXXXXXXXXXXXXXXXXXXXXXXXooXXX OOOO",
"OOOOO XXXXXX.XXXXXXXXXXXXXXXXXXXXXXXXXXXXXXXXXXXXXXXXXXXXXX OOOO",
"OOOOOO XXXXX.XXXXXXXXXXXXXXXXXXXXXXXXXXXXXXXXXXXXXXXXXXXXX OOOOO",
"OOOOOO XXXXXX.XXXXXXXXXXXXXXXXXXXXXXXXXXXXXXXXXXXXXXXXXXXX OOOOO",
"OOOOOOO XXXXX..XXXXXXXXXXXXXXXXXXXXXXXXXXXXXXXXXXXXXXXXXX OOOOOO",
"OOOOOOO XXXXXX..XXXXXXXXXXXXXXXXXXXXXXXXXXXXXXXXXXXXXXXXX OOOOOO",
"OOOOOOOO XXXXXX.....XXXXXXXXXXXXXXXXXXXXXXXXXXXXXXXXXXXX OOOOOOO",
"OOOOOOOOO XXXXXXXXXXXXXXXXXXXXXXXXXXXXXXXXXXXXXXXXXXXXX OOOOOOOO",
"OOOOOOOOOO XXXXXXXXXXXXXXXXXXXXXXXXXXXXXXXXX.XXXXXXXXX OOOOOOOOO",
"OOOOOOOOOOO XXXXXXXXXXXXXXXXXXXXXXXXXX.XXXXX..XXXXXXX OOOOOOOOOO",
"OOOOOOOOOOOO XXXXXXXXXXXXXXXXXXXXXXXXX..XXX..XXXXXXX OOOOOOOOOOO",
"OOOOOOOOOOOOO XXXXXXXXXXXXXXXXXXXXXXXXX.....XXXXXXX OOOOOOOOOOOO",
"OOOOOOOOOOOOOO XXXXXXXXXXXXXXXXXXXXXXXXXXXXXXXXXXX OOOOOOOOOOOOO",
"OOOOOOOOOOOOOOO  XXXXXXXXXXXXXXXXXXXXXXXXXXXXXXX  OOOOOOOOOOOOOO",
"OOOOOOOOOOOOOOOOO XXXXXXXXXXXXXXXXXXXXXXXXXXXXX OOOOOOOOOOOOOOOO",
"OOOOOOOOOOOOOOOOOO   XXXXXXXXXXXXXXXXXXXXXXX   OOOOOOOOOOOOOOOOO",
"OOOOOOOOOOOOOOOOOOOOO  XXXXXXXXXXXXXXXXXXX  OOOOOOOOOOOOOOOOOOOO",
"OOOOOOOOOOOOOOOOOOOOOOO    XXXXXXXXXXX    OOOOOOOOOOOOOOOOOOOOOO",
"OOOOOOOOOOOOOOOOOOOOOOOO  +           ++ OOOOOOOOOOOOOOOOOOOOOOO",
"OOOOOOOOOOOOOOOOOOOOOOOO +++++++++++++++ OOOOOOOOOOOOOOOOOOOOOOO",
"OOOOOOOOOOOOOOOOOOOOOOOO   +    ++++   + OOOOOOOOOOOOOOOOOOOOOOO",
"OOOOOOOOOOOOOOOOOOOOOOOO +++++++++++++++ OOOOOOOOOOOOOOOOOOOOOOO",
"OOOOOOOOOOOOOOOOOOOOOOOO     ++++   +++  OOOOOOOOOOOOOOOOOOOOOOO",
"OOOOOOOOOOOOOOOOOOOOOOOOO ++++  ++++++  OOOOOOOOOOOOOOOOOOOOOOOO",
"OOOOOOOOOOOOOOOOOOOOOOOOO +  +++++   ++ OOOOOOOOOOOOOOOOOOOOOOOO",
"OOOOOOOOOOOOOOOOOOOOOOOOO               OOOOOOOOOOOOOOOOOOOOOOOO",
"OOOOOOOOOOOOOOOOOOOOOOOOOO             OOOOOOOOOOOOOOOOOOOOOOOOO"
};
