/* XPM */
static char *_f3a5291a3024733e35dd7e5b86e64c3mxVpDJT9IvdTZG7i[] = {
/* columns rows colors chars-per-pixel */
"64 64 8 1 ",
"  c black",
". c #5A3607",
"X c #323E4F",
"o c #3D6E70",
"O c #8C3F5D",
"+ c #3CA370",
"@ c #93E6CC",
"# c #FFFFEB",
/* pixels */
"@@@@@@@@@@@@@@@@@@@@@@@@@@@@@@@@@ @@@@@@@@@@@@@@@@@@@@@@@@@@@@@@",
"@@@@@@@@@@@@@@@@@@@@@@@@@@@@@@@  o  @@@@@@@@@@@@@@@@@@@@@@@@@@@@",
"@@@@@@@@@@@@@@@@@@@@@@@@@@@@@@ ooooo @@@@@@@@@@@@@@@@@@@@@@@@@@@",
"@@@@@@@@@@@@@@@@@@@@@@@@@@@@@ ooooooo  @@@@@@@@@@@@@@@@@@@@@@@@@",
"@@@@@@@@@@@@@@@@@@@@@@@@@@@  oooooooooo @@@@@@@@@@@@@@@@@@@@@@@@",
"@@@@@@@@@@@@@@@@@@@@@@@@@@ ooooooooooooo  @@@@@@@@@@@@@@@@@@@@@@",
"@@@@@@@@@@@@@@@@@@@@@@@@  oooooooooooooooo @@@@@@@@@@@@@@@@@@@@@",
"@@@@@@@@@@@@@@@@@@@@@@@ ooooooooooooooooooo  @@@@@@@@@@@@@@@@@@@",
"@@@@@@@@@@@@@@@@@@@@@@ oooooooooooooooooooooo @@@@@@@@@@@@@@@@@@",
"@@@@@@@@@@@@@@@@@@@@  oooooooooooooooooooooooo @@@@@@@@@@@@@@@@@",
"@@@@@@@@@@@@@@@@@@@ ooooooooooooooooooooooooooo  @@@@@@@@@@@@@@@",
"@@@@@@@@@@@@@@@@@@ oooooooooooooooooooooooooooooo @@@@@@@@@@@@@@",
"@@@@@@@@@@@@@@@@  oooooooooooooooooooooooooooooooX  @@@@@@@@@@@@",
"@@@@@@@@@@@@@@@ ooooooooooooooooooooooooooXooooooXoo @@@@@@@@@@@",
"@@@@@@@@@@@@@  ooooooooooooooooooooooooooooXXoooooXoo  @@@@@@@@@",
"@@@@@@@@@@@@ ooooo+ooooooooooooooooooooooooooXooooXoooo @@@@@@@@",
"@@@@@@@@@@@@ ooooo+oooooooooooooooooooooooooooXXoooXooo @@@@@@@@",
"@@@@@@@@@@@@ oooo+ooooo++oooooooooooooooooooo+ooXooXooo @@@@@@@@",
"@@@@@@@@@@@@ oooo+ooo++oooooooooooooooooooooo+oooXXoooo @@@@@@@@",
"@@@@@@@@@@@@ ooo+oo++oooooooooooooooooooooooo+ooooooooo @@@@@@@@",
"@@@@@@@@@@@@ ooo+++ooooooooooooooooooooooooooo+oooooooo @@@@@@@@",
"@@@@@@@@@@@@ oooooXooooooooooooooooooo+ooooooo+oooooooo @@@@@@@@",
"@@@@@@@@@@@@ oooooXoooooooooooooooooooo++oooooo+ooooooo @@@@@@@@",
"@@@@@@@@@@@@ ooooXooooooooooooooooooooooo+ooooo+ooooooo @@@@@@@@",
"@@@@@@@@@@@@ ooooXoooooooooooooooooooooooo+oooo+ooooooo @@@@@@@@",
"@@@@@@@@@@@@ ooooXooooooXXooooooooooooooooo+oooo+oooooo @@@@@@@@",
"@@@@@@@@@@@@ oooXoooooXXoooooooooooooooooooo++oo+oooooo @@@@@@@@",
"@@@@@@@@@@@@ oooXoooXXoooooooooooooooooooooooo+o+oXoooo @@@@@@@@",
"@@@@@@@@@@@@ ooXooXX          ooooooooo          oXoooo @@@@@@@@",
"@@@@@@@@@@@@ ooXXX      oooooooooooooooooooo      Xoooo @@@@@@@@",
"@@@@@@@@@@@@ oooooooooooooooooooooooooooooooooooooXoooo @@@@@@@@",
"@@@@@@@@@@@@ oooooooooooooooooooooooooooooooooooooXoooo @@@@@@@@",
"@@@@@@@@@@@@ oooooooooooooooooooooooooooooooooooooXoooo @@@@@@@@",
"@@@@@@@@@@@@ oooooooooooooooooooooooooooooooXooooooXooo  @@@@@@@",
"@@@@@@@@@@@@ ooooo+ooooooooooooooooooooooooooXoooooXooo o @@@@@@",
"@@@@@@@@@@@  oooo+oooooooo++ooooooooooooooooooXooooXooo o @@@@@@",
"@@@@@@@@@@ o oooo+oooooo++###ooooooooooo###ooooXoooXooo oo @@@@@",
"@@@@@@@@@ oo ooo+ooooo++###ooooooooooooooo###oooXooXooo ooo @@@@",
"@@@@@@@  ooo oo+oooo++###oooooooooooooooo+oo####oXoXooo ooo @@@@",
"@@@@@@ ooooo oo+oo+###ooooooooooooooooooo+ooooo###Xoooo oooo @@@",
"@@@@@ oooooo o+o++ooooooooooooooo+ooooooo+ooooooooooooo ooooo @@",
"@@@@ ooooooo ooooooooooXoooooooooo+oooooo+ooooooooooooo ooooo @@",
"@@@ oooooooo ooooooooooXooooooooooo+ooooo+ooooooooooooo oooooo @",
"@@@          oooooooooXooooooooooooo+ooooo+oooooooooooo        @",
"@@@@@@@@@@@@ oooooooooXoooooooooooooo+oooo+oooooooooooo @@@@@@@@",
"@@@@@@@@@@@@@  oooooooXoooXXoooooooooo+ooo+oooooooooo  @@@@@@@@@",
"@@@@@@@@@@@@@@@ oooooXoooXooooooooooooo+oo+ooooooooo @@@@@@@@@@@",
"@@@@@@@@@@@@@@@@  oooXoXXooooooooooooooo+o+ooooooo  @@@@@@@@@@@@",
"@@@@@@@@@@@@@@@@@@ oooXoooooooooooooooooo++oooooo @@@@@@@@@@@@@@",
"@@@@@@@@@@@@@@@@@@@  ooooooooooooooooooooooooooo @@@@@@@@@@@@@@@",
"@@@@@@@@@@@@@@@@@@@@@ oooooooooooooooooooooooo  @@@@@@@@@@@@@@@@",
"@@@@@@@@@@@@@@@@@@@@@@ oooooooooooooooooooooo @@@@@@@@@@@@@@@@@@",
"@@@@@@@@@@@@@@@@@@@@@@@  ooooooooooooooooooo @@@@@@@@@@@@@@@@@@@",
"@@@@@@@@@@@@@@@@@@@@@@@@  oooooooooooooooo   @@@@@@@@@@@@@@@@@@@",
"@@@@@@@@@@@@@@@@@@@@@@@@ O  ooooooooooooo OO @@@@@@@@@@@@@@@@@@@",
"@@@@@@@@@@@@@@@@@@@@@@@@ OOO oooooooooo  OOO @@@@@@@@@@@@@@@@@@@",
"@@@@@@@@@@@@@@@@@@@@@@@@ OOOO  ooooooo OOOOO @@@@@@@@@@@@@@@@@@@",
"@@@@@@@@@@@@@@@@@@@@@@@@ OOOOOO ooooo OOOOOO  @@@@@@@@@@@@@@@@@@",
"@@@@@@@@@@@@@@@@@@@@@@@@ .OOOOOO  o  OOOOOOO. @@@@@@@@@@@@@@@@@@",
"@@@@@@@@@@@@@@@@@@@@@@@  ..OOOOOOO OOOOOOOO..  @@@@@@@@@@@@@@@@@",
"@@@@@@@@@@@@@@@@@@@@@@@ ...OOOOOOOOOOOOOOO.... @@@@@@@@@@@@@@@@@",
"@@@@@@@@@@@@@@@@@@@@@@  ....OOOOOOOOOOOOO.....   @@@@@@@@@@@@@@@",
"@@@@@@@@@@@@@@@@@@@@@@ ......OOOOOOOOOOO.......  @@@@@@@@@@@@@@@",
"@@@@@@@@@@@@@@@@@@@@@                             @@@@@@@@@@@@@@"
};
