/* XPM */
static char *_e0d6829a57942abc25a36304bbfce19F7f4PTrj7BPHBVUp[] = {
/* columns rows colors chars-per-pixel */
"64 64 6 1 ",
"  c black",
". c #BA6156",
"X c #BD4882",
"o c #FF6B97",
"O c #E9A2EE",
"+ c #93E6CC",
/* pixels */
"++++OOOO++++++++OOOO++++++++++++++++++++++++++++++++++++++++++++",
"++++OOOO++++++++OOOO++++++++++++++++++++++++++++++++++++++++++++",
"++++OOOO++++++++OOOO++++++++++++++++++++++++++++++++++++++++++++",
"++++OOOO++++++++OOOO++++++++++++++++++++++++++++++++++++++++++++",
"++++++++OOOO++++++++OOOO++++++++++++++++++++++++++++++++++++++++",
"++++++++OOOO++++++++OOOO++++++++++++++++++++++++++++++++++++++++",
"++++++++OOOO++++++++OOOO++++++++++++++++++++++++++++++++++++++++",
"++++++++OOOO++++++++OOOO++++++++++++++++++++++++++++++++++++++++",
"++++++++oooo++++++++oooo++++++++++++++++++++++++++++++++++++++++",
"++++++++oooo++++++++oooo++++++++++++++++++++++++++++++++++++++++",
"++++++++oooo++++++++oooo++++++++++++++++++++++++++++++++++++++++",
"++++++++oooo++++++++oooo++++++++++++++++++++++++++++++++++++++++",
"++++OOOOOOOOOOOOOOOOOOOOOOOO++++++++++++++++++++++++++++++++++++",
"++++OOOOOOOOOOOOOOOOOOOOOOOO++++++++++++++++++++++++++++++++++++",
"++++OOOOOOOOOOOOOOOOOOOOOOOO++++++++++++++++++++++++++++++++++++",
"++++OOOOOOOOOOOOOOOOOOOOOOOO++++++++++++++++++++++++++++++++++++",
"++++OOOOOOOOOOOOOOOOOOOOOOOOOOOOOOOOOOOOOOOOOOOOOO++++++++++++++",
"++++OOOOOOOOOOOOOOOOOOOOOOOOOOOOOOOOOOOOOOOOOOOOOO++++++++++++++",
"++++OOOOOOOOOOOOOOOOOOOOOOOOOOOOOOOOOOOOOOOOOOOOOO++++++++++++++",
"++++OOOOOOOOOOOOOOOOOOOOOOOOOOOOOOOOOOOOOOOOOOOOOO++++++++++++++",
"++++OOOOOOOOOOOOOOOOOOOOOOOOOOOOOOOOOOOOOOOOOOOOOOOOOO++++++++++",
"++++OOOOOOOOOOOOOOOOOOOOOOOOOOOOOOOOOOOOOOOOOOOOOOOOOO++++++++++",
"++++OO    OOOOOOOO    OOOOOOOOOOOOOOXXXXOOOOOOXXXXOOOO++++oooo++",
"++++OO    OOOOOOOO    OOOOOOOOOOOOOOXXXXOOOOOOXXXXOOOO++++oooo++",
"++++OO    OOOOOOOO    OOOOOOOOOOOOXXXXXXXXXXXXXXXXXXOO++++oooo++",
"++++OO    OOOOOOOO    OOOOOOOOOOOOXXXXXXXXXXXXXXXXXXOO++++oooo++",
"ooooooooooooooooooOOOOOOOOOOOOOOOOXXXXXXXXXXXXXXXXXXOO++++oooo++",
"ooooooooooooooooooOOOOOOOOOOOOOOOOXXXXXXXXXXXXXXXXXXOO++++oooo++",
"ooooooooooooooooooOOOOOOOOOOOOOOOOOOXXXXXXXXXXXXXXOOOO++++oooo++",
"ooooooooooooooooooOOOOOOOOOOOOOOOOOOXXXXXXXXXXXXXXOOOO++++oooo++",
"oo    oooo    ooooOOOOOOOOOOOOOOOOOOXXXXXXXXXXXXXXOOOOoooo++++++",
"oo    oooo    ooooOOOOOOOOOOOOOOOOOOXXXXXXXXXXXXXXOOOOoooo++++++",
"oo    oooo    ooooOOOOOOOOOOOOOOOOOOOOXXXXXXXXXXOOOOOOoooo++++++",
"oo    oooo    ooooOOOOOOOOOOOOOOOOOOOOXXXXXXXXXXOOOOOOoooo++++++",
"ooooooooooooooooooOOOOOOOOOOOOOOOOOOOOOOXXXXXXOOOOOOOO++++++++++",
"ooooooooooooooooooOOOOOOOOOOOOOOOOOOOOOOXXXXXXOOOOOOOO++++++++++",
"ooooooooooooooooooOOOOOOOOOOOOOOOOOOOOOOOOXXOOOO....OO++++++++++",
"ooooooooooooooooooOOOOOOOOOOOOOOOOOOOOOOOOXXOOOO....OO++++++++++",
"ooooooooooooooooooOOOOOOOOOOOOOOOOOOOOOOOOOOOO......OO++++++++++",
"ooooooooooooooooooOOOOOOOOOOOOOOOOOOOOOOOOOOOO......OO++++++++++",
"++++++++OOOOOOOOOOOOOOOOOOOOOOOOOOOOOOOOOOOOOOOO....OO++++++++++",
"++++++++OOOOOOOOOOOOOOOOOOOOOOOOOOOOOOOOOOOOOOOO....OO++++++++++",
"++++++++OOOOOOOOOOOOOOOOOOOOOOOOOOOOOOOOOOOOOOOOOOOOOO++++++++++",
"++++++++OOOOOOOOOOOOOOOOOOOOOOOOOOOOOOOOOOOOOOOOOOOOOO++++++++++",
"++++++++OOOOOOOOOOOOOOOOOOOOOOOOOOOOOOOOOOOOOOOOOOOOOO++++++++++",
"++++++++OOOOOOOOOOOOOOOOOOOOOOOOOOOOOOOOOOOOOOOOOOOOOO++++++++++",
"++++++++OOOOOOOOOOOOOOOOOOOOOOOOOOOOOOOOOOOOOOOOOOOOOO++++++++++",
"++++++++OOOOOOOOOOOOOOOOOOOOOOOOOOOOOOOOOOOOOOOOOOOOOO++++++++++",
"++++++++OOOOOOOOOOOOOOOOOOOOOOOOOOOOOOOOOOOOOOOOOOOOOO++++++++++",
"++++++++OOOOOOOOOOOOOOOOOOOOOOOOOOOOOOOOOOOOOOOOOOOOOO++++++++++",
"++++++++++++OOOOOOOOOOOOOOOOOOOOOOOOOOOOOOOOOOOOOO++++++++++++++",
"++++++++++++OOOOOOOOOOOOOOOOOOOOOOOOOOOOOOOOOOOOOO++++++++++++++",
"++++++++++++OOOOOOOOOOOOOOOOOOOOOOOOOOOOOOOOOOOOOO++++++++++++++",
"++++++++++++OOOOOOOOOOOOOOOOOOOOOOOOOOOOOOOOOOOOOO++++++++++++++",
"++++++++++++++++OOOO++++OOOO++++++++++OOOO++++OOOO++++++++++++++",
"++++++++++++++++OOOO++++OOOO++++++++++OOOO++++OOOO++++++++++++++",
"++++++++++++++++OOOO++++OOOO++++++++++OOOO++++OOOO++++++++++++++",
"++++++++++++++++OOOO++++OOOO++++++++++OOOO++++OOOO++++++++++++++",
"++++++++++++++++OOOO++++OOOO++++++++++OOOO++++OOOO++++++++++++++",
"++++++++++++++++OOOO++++OOOO++++++++++OOOO++++OOOO++++++++++++++",
"++++++++++++++++OOOO++++OOOO++++++++++OOOO++++OOOO++++++++++++++",
"++++++++++++++++OOOO++++OOOO++++++++++OOOO++++OOOO++++++++++++++",
"++++++++++++++++OOOO++++OOOO++++++++++OOOO++++OOOO++++++++++++++",
"++++++++++++++++OOOO++++OOOO++++++++++OOOO++++OOOO++++++++++++++"
};
