/* XPM */
static char *c269000afc2a4c5ab48f9542b1a06954VIXAH3MGYqI74oDy[] = {
/* columns rows colors chars-per-pixel */
"64 64 6 1 ",
"  c black",
". c #BA6156",
"X c #BD4882",
"o c #FF6B97",
"O c #E9A2EE",
"+ c #93E6CC",
/* pixels */
"++++++++++++++++++++++++++++++++++++++++++++++++++++++++++++++++",
"++++++++++++++++++++++++++++++++++++++++++++++++++++++++++++++++",
"++++++++++++++++++++++++++++++++++++++++++++++++++++++++++++++++",
"++++++++++++++++++++++++++++++++++++++++++++++++++++++++++++++++",
"++++++++++++++++++++++++++++++++++++++++OOOOOOOO++++OOOOOOOO++++",
"++++++++++++++++++++++++++++++++++++++++OOOOOOOO++++OOOOOOOO++++",
"++++++++++++++++++++++++++++++++++++++++OOOOOOOO++++OOOOOOOO++++",
"++++++++++++++++++++++++++++++++++++++++OOOOOOOO++++OOOOOOOO++++",
"++++++++++++++++++++++++++++++++++++++++oooo++++++++oooo++++++++",
"++++++++++++++++++++++++++++++++++++++++oooo++++++++oooo++++++++",
"++++++++++++++++++++++++++++++++++++++++oooo++++++++oooo++++++++",
"++++++++++++++++++++++++++++++++++++++++oooo++++++++oooo++++++++",
"++++++++++++++++++++++++++++++++++++OOOOOOOOOOOOOOOOOOOOOOOO++++",
"++++++++++++++++++++++++++++++++++++OOOOOOOOOOOOOOOOOOOOOOOO++++",
"++++++++++++++++++++++++++++++++++++OOOOOOOOOOOOOOOOOOOOOOOO++++",
"++++++++++++++++++++++++++++++++++++OOOOOOOOOOOOOOOOOOOOOOOO++++",
"++++++++++++++OOOOOOOOOOOOOOOOOOOOOOOOOOOOOOOOOOOOOOOOOOOOOO++++",
"++++++++++++++OOOOOOOOOOOOOOOOOOOOOOOOOOOOOOOOOOOOOOOOOOOOOO++++",
"++++++++++++++OOOOOOOOOOOOOOOOOOOOOOOOOOOOOOOOOOOOOOOOOOOOOO++++",
"++++++++++++++OOOOOOOOOOOOOOOOOOOOOOOOOOOOOOOOOOOOOOOOOOOOOO++++",
"++++++++++OOOOOOOOOOOOOOOOOOOOOOOOOOOOOOOOOOOOOOOOOOOOOOOOOO++++",
"++++++++++OOOOOOOOOOOOOOOOOOOOOOOOOOOOOOOOOOOOOOOOOOOOOOOOOO++++",
"++++++++++OOOOXXXXOOOOOOXXXXOOOOOOOOOOOOOOOOOOOOOOOOOOOOOOOO++++",
"++++++++++OOOOXXXXOOOOOOXXXXOOOOOOOOOOOOOOOOOOOOOOOOOOOOOOOO++++",
"++++++++++OOXXXXXXXXXXXXXXXXXXOOOOOOOOOOOO    OOOOOOOO    OO++++",
"++++++++++OOXXXXXXXXXXXXXXXXXXOOOOOOOOOOOO    OOOOOOOO    OO++++",
"oooo++++++OOXXXXXXXXXXXXXXXXXXOOOOOOOOOOOOOOOOoooooooooooooooooo",
"oooo++++++OOXXXXXXXXXXXXXXXXXXOOOOOOOOOOOOOOOOoooooooooooooooooo",
"oooo++++++OOOOXXXXXXXXXXXXXXOOOOOOOOOOOOOOOOOOoooooooooooooooooo",
"oooo++++++OOOOXXXXXXXXXXXXXXOOOOOOOOOOOOOOOOOOoooooooooooooooooo",
"++ooooooooOOOOXXXXXXXXXXXXXXOOOOOOOOOOOOOOOOOOoooo    oooo    oo",
"++ooooooooOOOOXXXXXXXXXXXXXXOOOOOOOOOOOOOOOOOOoooo    oooo    oo",
"++ooooooooOOOOOOXXXXXXXXXXOOOOOOOOOOOOOOOOOOOOoooo    oooo    oo",
"++ooooooooOOOOOOXXXXXXXXXXOOOOOOOOOOOOOOOOOOOOoooo    oooo    oo",
"++++++++++OOOOOOOOXXXXXXOOOOOOOOOOOOOOOOOOOOOOoooooooooooooooooo",
"++++++++++OOOOOOOOXXXXXXOOOOOOOOOOOOOOOOOOOOOOoooooooooooooooooo",
"++++++++++OO....OOOOXXOOOOOOOOOOOOOOOOOOOOOOOOoooooooooooooooooo",
"++++++++++OO....OOOOXXOOOOOOOOOOOOOOOOOOOOOOOOoooooooooooooooooo",
"++++++++++OO......OOOOOOOOOOOOOOOOOOOOOOOOOOOOoooooooooooooooooo",
"++++++++++OO......OOOOOOOOOOOOOOOOOOOOOOOOOOOOoooooooooooooooooo",
"++++++++++OO....OOOOOOOOOOOOOOOOOOOOOOOOOOOOOOOOOOOOOOOO++++++++",
"++++++++++OO....OOOOOOOOOOOOOOOOOOOOOOOOOOOOOOOOOOOOOOOO++++++++",
"++++++++++OOOOOOOOOOOOOOOOOOOOOOOOOOOOOOOOOOOOOOOOOOOOOO++++++++",
"++++++++++OOOOOOOOOOOOOOOOOOOOOOOOOOOOOOOOOOOOOOOOOOOOOO++++++++",
"++++++++++OOOOOOOOOOOOOOOOOOOOOOOOOOOOOOOOOOOOOOOOOOOOOO++++++++",
"++++++++++OOOOOOOOOOOOOOOOOOOOOOOOOOOOOOOOOOOOOOOOOOOOOO++++++++",
"++++++++++OOOOOOOOOOOOOOOOOOOOOOOOOOOOOOOOOOOOOOOOOOOOOO++++++++",
"++++++++++OOOOOOOOOOOOOOOOOOOOOOOOOOOOOOOOOOOOOOOOOOOOOO++++++++",
"++++++++++OOOOOOOOOOOOOOOOOOOOOOOOOOOOOOOOOOOOOOOOOOOOOO++++++++",
"++++++++++OOOOOOOOOOOOOOOOOOOOOOOOOOOOOOOOOOOOOOOOOOOOOO++++++++",
"++++++++++++++OOOOOOOOOOOOOOOOOOOOOOOOOOOOOOOOOOOOOO++++++++++++",
"++++++++++++++OOOOOOOOOOOOOOOOOOOOOOOOOOOOOOOOOOOOOO++++++++++++",
"++++++++++++++OOOOOOOOOOOOOOOOOOOOOOOOOOOOOOOOOOOOOO++++++++++++",
"++++++++++++++OOOOOOOOOOOOOOOOOOOOOOOOOOOOOOOOOOOOOO++++++++++++",
"++++++++++++++OOOO++++OOOO++++++++++OOOO++++OOOO++++++++++++++++",
"++++++++++++++OOOO++++OOOO++++++++++OOOO++++OOOO++++++++++++++++",
"++++++++++++++OOOO++++OOOO++++++++++OOOO++++OOOO++++++++++++++++",
"++++++++++++++OOOO++++OOOO++++++++++OOOO++++OOOO++++++++++++++++",
"++++++++++++++OOOO++++OOOO++++++++++OOOO++++OOOO++++++++++++++++",
"++++++++++++++OOOO++++OOOO++++++++++OOOO++++OOOO++++++++++++++++",
"++++++++++OOOO++++++++++++OOOO++++++++++OOOO++++OOOO++++++++++++",
"++++++++++OOOO++++++++++++OOOO++++++++++OOOO++++OOOO++++++++++++",
"++++++++++OOOO++++++++++++OOOO++++++++++OOOO++++OOOO++++++++++++",
"++++++++++OOOO++++++++++++OOOO++++++++++OOOO++++OOOO++++++++++++"
};
