/* XPM */
static char *a10818e8aff646a7fcd8b64ddec6622ar1ngfVmo3oJ46hUF[] = {
/* columns rows colors chars-per-pixel */
"64 64 6 1 ",
"  c black",
". c #BA6156",
"X c #BD4882",
"o c #FF6B97",
"O c #E9A2EE",
"+ c #93E6CC",
/* pixels */
"++++++++++++++++++++++++++++++++++++++++++++OOOO++++++++OOOO++++",
"++++++++++++++++++++++++++++++++++++++++++++OOOO++++++++OOOO++++",
"++++++++++++++++++++++++++++++++++++++++++++OOOO++++++++OOOO++++",
"++++++++++++++++++++++++++++++++++++++++++++OOOO++++++++OOOO++++",
"++++++++++++++++++++++++++++++++++++++++OOOO++++++++OOOO++++++++",
"++++++++++++++++++++++++++++++++++++++++OOOO++++++++OOOO++++++++",
"++++++++++++++++++++++++++++++++++++++++OOOO++++++++OOOO++++++++",
"++++++++++++++++++++++++++++++++++++++++OOOO++++++++OOOO++++++++",
"++++++++++++++++++++++++++++++++++++++++oooo++++++++oooo++++++++",
"++++++++++++++++++++++++++++++++++++++++oooo++++++++oooo++++++++",
"++++++++++++++++++++++++++++++++++++++++oooo++++++++oooo++++++++",
"++++++++++++++++++++++++++++++++++++++++oooo++++++++oooo++++++++",
"++++++++++++++++++++++++++++++++++++OOOOOOOOOOOOOOOOOOOOOOOO++++",
"++++++++++++++++++++++++++++++++++++OOOOOOOOOOOOOOOOOOOOOOOO++++",
"++++++++++++++++++++++++++++++++++++OOOOOOOOOOOOOOOOOOOOOOOO++++",
"++++++++++++++++++++++++++++++++++++OOOOOOOOOOOOOOOOOOOOOOOO++++",
"++++++++++++++OOOOOOOOOOOOOOOOOOOOOOOOOOOOOOOOOOOOOOOOOOOOOO++++",
"++++++++++++++OOOOOOOOOOOOOOOOOOOOOOOOOOOOOOOOOOOOOOOOOOOOOO++++",
"++++++++++++++OOOOOOOOOOOOOOOOOOOOOOOOOOOOOOOOOOOOOOOOOOOOOO++++",
"++++++++++++++OOOOOOOOOOOOOOOOOOOOOOOOOOOOOOOOOOOOOOOOOOOOOO++++",
"++++++++++OOOOOOOOOOOOOOOOOOOOOOOOOOOOOOOOOOOOOOOOOOOOOOOOOO++++",
"++++++++++OOOOOOOOOOOOOOOOOOOOOOOOOOOOOOOOOOOOOOOOOOOOOOOOOO++++",
"++oooo++++OOOOXXXXOOOOOOXXXXOOOOOOOOOOOOOO    OOOOOOOO    OO++++",
"++oooo++++OOOOXXXXOOOOOOXXXXOOOOOOOOOOOOOO    OOOOOOOO    OO++++",
"++oooo++++OOXXXXXXXXXXXXXXXXXXOOOOOOOOOOOO    OOOOOOOO    OO++++",
"++oooo++++OOXXXXXXXXXXXXXXXXXXOOOOOOOOOOOO    OOOOOOOO    OO++++",
"++oooo++++OOXXXXXXXXXXXXXXXXXXOOOOOOOOOOOOOOOOoooooooooooooooooo",
"++oooo++++OOXXXXXXXXXXXXXXXXXXOOOOOOOOOOOOOOOOoooooooooooooooooo",
"++oooo++++OOOOXXXXXXXXXXXXXXOOOOOOOOOOOOOOOOOOoooooooooooooooooo",
"++oooo++++OOOOXXXXXXXXXXXXXXOOOOOOOOOOOOOOOOOOoooooooooooooooooo",
"++++++ooooOOOOXXXXXXXXXXXXXXOOOOOOOOOOOOOOOOOOoooo    oooo    oo",
"++++++ooooOOOOXXXXXXXXXXXXXXOOOOOOOOOOOOOOOOOOoooo    oooo    oo",
"++++++ooooOOOOOOXXXXXXXXXXOOOOOOOOOOOOOOOOOOOOoooo    oooo    oo",
"++++++ooooOOOOOOXXXXXXXXXXOOOOOOOOOOOOOOOOOOOOoooo    oooo    oo",
"++++++++++OOOOOOOOXXXXXXOOOOOOOOOOOOOOOOOOOOOOoooooooooooooooooo",
"++++++++++OOOOOOOOXXXXXXOOOOOOOOOOOOOOOOOOOOOOoooooooooooooooooo",
"++++++++++OO....OOOOXXOOOOOOOOOOOOOOOOOOOOOOOOoooooooooooooooooo",
"++++++++++OO....OOOOXXOOOOOOOOOOOOOOOOOOOOOOOOoooooooooooooooooo",
"++++++++++OO......OOOOOOOOOOOOOOOOOOOOOOOOOOOOoooooooooooooooooo",
"++++++++++OO......OOOOOOOOOOOOOOOOOOOOOOOOOOOOoooooooooooooooooo",
"++++++++++OO....OOOOOOOOOOOOOOOOOOOOOOOOOOOOOOOOOOOOOOOO++++++++",
"++++++++++OO....OOOOOOOOOOOOOOOOOOOOOOOOOOOOOOOOOOOOOOOO++++++++",
"++++++++++OOOOOOOOOOOOOOOOOOOOOOOOOOOOOOOOOOOOOOOOOOOOOO++++++++",
"++++++++++OOOOOOOOOOOOOOOOOOOOOOOOOOOOOOOOOOOOOOOOOOOOOO++++++++",
"++++++++++OOOOOOOOOOOOOOOOOOOOOOOOOOOOOOOOOOOOOOOOOOOOOO++++++++",
"++++++++++OOOOOOOOOOOOOOOOOOOOOOOOOOOOOOOOOOOOOOOOOOOOOO++++++++",
"++++++++++OOOOOOOOOOOOOOOOOOOOOOOOOOOOOOOOOOOOOOOOOOOOOO++++++++",
"++++++++++OOOOOOOOOOOOOOOOOOOOOOOOOOOOOOOOOOOOOOOOOOOOOO++++++++",
"++++++++++OOOOOOOOOOOOOOOOOOOOOOOOOOOOOOOOOOOOOOOOOOOOOO++++++++",
"++++++++++OOOOOOOOOOOOOOOOOOOOOOOOOOOOOOOOOOOOOOOOOOOOOO++++++++",
"++++++++++++++OOOOOOOOOOOOOOOOOOOOOOOOOOOOOOOOOOOOOO++++++++++++",
"++++++++++++++OOOOOOOOOOOOOOOOOOOOOOOOOOOOOOOOOOOOOO++++++++++++",
"++++++++++++++OOOOOOOOOOOOOOOOOOOOOOOOOOOOOOOOOOOOOO++++++++++++",
"++++++++++++++OOOOOOOOOOOOOOOOOOOOOOOOOOOOOOOOOOOOOO++++++++++++",
"++++++++++++++OOOO++++OOOO++++++++++OOOO++++OOOO++++++++++++++++",
"++++++++++++++OOOO++++OOOO++++++++++OOOO++++OOOO++++++++++++++++",
"++++++++++++++OOOO++++OOOO++++++++++OOOO++++OOOO++++++++++++++++",
"++++++++++++++OOOO++++OOOO++++++++++OOOO++++OOOO++++++++++++++++",
"++++++++++++++OOOO++++OOOO++++++++++OOOO++++OOOO++++++++++++++++",
"++++++++++++++OOOO++++OOOO++++++++++OOOO++++OOOO++++++++++++++++",
"++++++++++++++OOOO++++OOOO++++++++++OOOO++++OOOO++++++++++++++++",
"++++++++++++++OOOO++++OOOO++++++++++OOOO++++OOOO++++++++++++++++",
"++++++++++++++OOOO++++OOOO++++++++++OOOO++++OOOO++++++++++++++++",
"++++++++++++++OOOO++++OOOO++++++++++OOOO++++OOOO++++++++++++++++"
};
