/* XPM */
static char *_fdc757c77644b928afb4d7609dad5cbpQbXZV8N3oObiQ6M[] = {
/* columns rows colors chars-per-pixel */
"64 64 6 1 ",
"  c black",
". c #BA6156",
"X c #BD4882",
"o c #FF6B97",
"O c #E9A2EE",
"+ c #93E6CC",
/* pixels */
"++++++++++++++++++++++++++++++++++++++++++++++++++++++++++++++++",
"++++++++++++++++++++++++++++++++++++++++++++++++++++++++++++++++",
"++++++++++++++++++++++++++++++++++++++++++++++++++++++++++++++++",
"++++++++++++++++++++++++++++++++++++++++++++++++++++++++++++++++",
"++++OOOOOOOO++++OOOOOOOO++++++++++++++++++++++++++++++++++++++++",
"++++OOOOOOOO++++OOOOOOOO++++++++++++++++++++++++++++++++++++++++",
"++++OOOOOOOO++++OOOOOOOO++++++++++++++++++++++++++++++++++++++++",
"++++OOOOOOOO++++OOOOOOOO++++++++++++++++++++++++++++++++++++++++",
"++++++++oooo++++++++oooo++++++++++++++++++++++++++++++++++++++++",
"++++++++oooo++++++++oooo++++++++++++++++++++++++++++++++++++++++",
"++++++++oooo++++++++oooo++++++++++++++++++++++++++++++++++++++++",
"++++++++oooo++++++++oooo++++++++++++++++++++++++++++++++++++++++",
"++++OOOOOOOOOOOOOOOOOOOOOOOO++++++++++++++++++++++++++++++++++++",
"++++OOOOOOOOOOOOOOOOOOOOOOOO++++++++++++++++++++++++++++++++++++",
"++++OOOOOOOOOOOOOOOOOOOOOOOO++++++++++++++++++++++++++++++++++++",
"++++OOOOOOOOOOOOOOOOOOOOOOOO++++++++++++++++++++++++++++++++++++",
"++++OOOOOOOOOOOOOOOOOOOOOOOOOOOOOOOOOOOOOOOOOOOOOO++++++++++++++",
"++++OOOOOOOOOOOOOOOOOOOOOOOOOOOOOOOOOOOOOOOOOOOOOO++++++++++++++",
"++++OOOOOOOOOOOOOOOOOOOOOOOOOOOOOOOOOOOOOOOOOOOOOO++++++++++++++",
"++++OOOOOOOOOOOOOOOOOOOOOOOOOOOOOOOOOOOOOOOOOOOOOO++++++++++++++",
"++++OOOOOOOOOOOOOOOOOOOOOOOOOOOOOOOOOOOOOOOOOOOOOOOOOO++++++++++",
"++++OOOOOOOOOOOOOOOOOOOOOOOOOOOOOOOOOOOOOOOOOOOOOOOOOO++++++++++",
"++++OOOOOOOOOOOOOOOOOOOOOOOOOOOOOOOOXXXXOOOOOOXXXXOOOO++++++++++",
"++++OOOOOOOOOOOOOOOOOOOOOOOOOOOOOOOOXXXXOOOOOOXXXXOOOO++++++++++",
"++++OO    OOOOOOOO    OOOOOOOOOOOOXXXXXXXXXXXXXXXXXXOO++++++++++",
"++++OO    OOOOOOOO    OOOOOOOOOOOOXXXXXXXXXXXXXXXXXXOO++++++++++",
"ooooooooooooooooooOOOOOOOOOOOOOOOOXXXXXXXXXXXXXXXXXXOO++++++oooo",
"ooooooooooooooooooOOOOOOOOOOOOOOOOXXXXXXXXXXXXXXXXXXOO++++++oooo",
"ooooooooooooooooooOOOOOOOOOOOOOOOOOOXXXXXXXXXXXXXXOOOO++++++oooo",
"ooooooooooooooooooOOOOOOOOOOOOOOOOOOXXXXXXXXXXXXXXOOOO++++++oooo",
"oo    oooo    ooooOOOOOOOOOOOOOOOOOOXXXXXXXXXXXXXXOOOOoooooooo++",
"oo    oooo    ooooOOOOOOOOOOOOOOOOOOXXXXXXXXXXXXXXOOOOoooooooo++",
"oo    oooo    ooooOOOOOOOOOOOOOOOOOOOOXXXXXXXXXXOOOOOOoooooooo++",
"oo    oooo    ooooOOOOOOOOOOOOOOOOOOOOXXXXXXXXXXOOOOOOoooooooo++",
"ooooooooooooooooooOOOOOOOOOOOOOOOOOOOOOOXXXXXXOOOOOOOO++++++++++",
"ooooooooooooooooooOOOOOOOOOOOOOOOOOOOOOOXXXXXXOOOOOOOO++++++++++",
"ooooooooooooooooooOOOOOOOOOOOOOOOOOOOOOOOOXXOOOO....OO++++++++++",
"ooooooooooooooooooOOOOOOOOOOOOOOOOOOOOOOOOXXOOOO....OO++++++++++",
"ooooooooooooooooooOOOOOOOOOOOOOOOOOOOOOOOOOOOO......OO++++++++++",
"ooooooooooooooooooOOOOOOOOOOOOOOOOOOOOOOOOOOOO......OO++++++++++",
"++++++++OOOOOOOOOOOOOOOOOOOOOOOOOOOOOOOOOOOOOOOO....OO++++++++++",
"++++++++OOOOOOOOOOOOOOOOOOOOOOOOOOOOOOOOOOOOOOOO....OO++++++++++",
"++++++++OOOOOOOOOOOOOOOOOOOOOOOOOOOOOOOOOOOOOOOOOOOOOO++++++++++",
"++++++++OOOOOOOOOOOOOOOOOOOOOOOOOOOOOOOOOOOOOOOOOOOOOO++++++++++",
"++++++++OOOOOOOOOOOOOOOOOOOOOOOOOOOOOOOOOOOOOOOOOOOOOO++++++++++",
"++++++++OOOOOOOOOOOOOOOOOOOOOOOOOOOOOOOOOOOOOOOOOOOOOO++++++++++",
"++++++++OOOOOOOOOOOOOOOOOOOOOOOOOOOOOOOOOOOOOOOOOOOOOO++++++++++",
"++++++++OOOOOOOOOOOOOOOOOOOOOOOOOOOOOOOOOOOOOOOOOOOOOO++++++++++",
"++++++++OOOOOOOOOOOOOOOOOOOOOOOOOOOOOOOOOOOOOOOOOOOOOO++++++++++",
"++++++++OOOOOOOOOOOOOOOOOOOOOOOOOOOOOOOOOOOOOOOOOOOOOO++++++++++",
"++++++++++++OOOOOOOOOOOOOOOOOOOOOOOOOOOOOOOOOOOOOO++++++++++++++",
"++++++++++++OOOOOOOOOOOOOOOOOOOOOOOOOOOOOOOOOOOOOO++++++++++++++",
"++++++++++++OOOOOOOOOOOOOOOOOOOOOOOOOOOOOOOOOOOOOO++++++++++++++",
"++++++++++++OOOOOOOOOOOOOOOOOOOOOOOOOOOOOOOOOOOOOO++++++++++++++",
"++++++++++++++++OOOO++++OOOO++++++++++OOOO++++OOOO++++++++++++++",
"++++++++++++++++OOOO++++OOOO++++++++++OOOO++++OOOO++++++++++++++",
"++++++++++++++++OOOO++++OOOO++++++++++OOOO++++OOOO++++++++++++++",
"++++++++++++++++OOOO++++OOOO++++++++++OOOO++++OOOO++++++++++++++",
"++++++++++++++++OOOO++++OOOO++++++++++OOOO++++OOOO++++++++++++++",
"++++++++++++++++OOOO++++OOOO++++++++++OOOO++++OOOO++++++++++++++",
"++++++++++++OOOO++++OOOO++++++++++OOOO++++++++++++OOOO++++++++++",
"++++++++++++OOOO++++OOOO++++++++++OOOO++++++++++++OOOO++++++++++",
"++++++++++++OOOO++++OOOO++++++++++OOOO++++++++++++OOOO++++++++++",
"++++++++++++OOOO++++OOOO++++++++++OOOO++++++++++++OOOO++++++++++"
};
