/* XPM */
static char *_e30a1e8474a4daca64a033081a42aa5vbfqiCCVeGbe3nTq[] = {
/* columns rows colors chars-per-pixel */
"64 64 6 1 ",
"  c black",
". c #B0305C",
"X c #BA6156",
"o c #F2A65E",
"O c #93E6CC",
"+ c white",
/* pixels */
"OOOOOOOOOOOOOOOOOOOOOOOOOOOOOOOOOOOOOOOOOOOOOOOOOOOOOOOOOOOOOOOO",
"OOOOOOOOOOOOOOOOOOOOOOOOOOOOOOOOOOOOOOOOOOOOOOOOOOOOOOOOOOOOOOOO",
"OOOOOOOOOOOOOOOOOOOOOOOOOOOOOOOOOOOOOOOOOOOOOOOOOOOOOOOOOOOOOOOO",
"OOOOOOOOOOOOOOOOOOOOOOOOOOOOOOOOOOOOOOOOOOOOOOOOOOOOOOOOOOOOOOOO",
"OOOOOOOOOOOOOOOOOOOOOOOOOOOOOOOOOOOOOOOOOOOOOOOOOOOOOOOOOOOOOOOO",
"OOOOOOOOOOOOOOOOOOOOOOOOOOOOOOOOOOOOOOOOOOOOOOOOOOOOOOOOOOOOOOOO",
"OOOOOOOOOOOOOOOOOOOOOOOOOOOOOOOOOOOOOOOOOOOOOOOOOOOOOOOOOOOOOOOO",
"OOOOOOOOOOOOOOOOOOOOOOOOOOOOOOOOOOOOOOOOOOOOOOOOOOOOOOOOOOOOOOOO",
"OOOOOOOOOOOOOOOOOOOOOOOOOOOOOOOOOOOOOOOOOOOOOOOOOOOOOOOOOOOOOOOO",
"OOOOOOOOOOOOOOOOOOOOOOOOOOOOOOOOOOOOOOOOOOOOOOOOOOOOOOOOOOOOOOOO",
"OOOOOOOOOOOOOOOOOOOOOOOOOOOOOOOOOOOOOOOOOOOOOOOOOOOOOOOOOOOOOOOO",
"OOOOOOOOOOOOOOOOOOOOOOOOOOOOOOOOOOOOOOOOOOOOOOOOOOOOOOOOOOOOOOOO",
"OOOOOOOOOOOOOOOOOOOOOOOOOOOOOOOOOOOOOOOOOOOOOOOOOOOOOOOOOOOOOOOO",
"OOOOOOOOOOOOOOOOOOOOOOOOOOOOOOOOOOOOOOOOOOOOOOOOOOOOOOOOOOOOOOOO",
"OOOOOOOOOOOOOOOOOOOOOOOOOO        OOOOOOOOOOOOOOOOOOOOOOOOOOOOOO",
"OOOOOOOOOOOOOOOOOOOOOOO   ...++...   OOOOOOOOOOOOOOOOOOOOOOOOOOO",
"OOOOOOOOOOOOOOOOOOOOO  .....++++...... OOOOOOOOOOOOOOOOOOOOOOOOO",
"OOOOOOOOOOOOOOOOOOOO ......++++++....++ OOOOOOOOOOOOOOOOOOOOOOOO",
"OOOOOOOOOOOOOOOOOOO .......++++++...++++ OOOOOOOOOOOOOOOOOOOOOOO",
"OOOOOOOOOOOOOOOOOO ..++.....++++...++++++ OOOOOOOOOOOOOOOOOOOOOO",
"OOOOOOOOOOOOOOOOO ..++++.....++....++++++. OOOOOOOOOOOOOOOOOOOOO",
"OOOOOOOOOOOOOOOO ..++++++...........++++... OOOOOOOOOOOOOOOOOOOO",
"OOOOOOOOOOOOOOOO ..++++++............++.... OOOOOOOOOOOOOOOOOOOO",
"OOOOOOOOOOOOOOO ....++++.................... OOOOOOOOOOOOOOOOOOO",
"OOOOOOOOOOOOOOO .....++..................... OOOOOOOOOOOOOOOOOOO",
"OOOOOOOOOOOOOOO ...............++........... OOOOOOOOOOOOOOOOOOO",
"OOOOOOOOOOOOOOO ..............++++.......... OOOOOOOOOOOOOOOOOOO",
"OOOOOOOOOOOOOOO .............++++++......... OOOOOOOOOOOOOOOOOOO",
"OOOOOOOOOOOOOOO .............++++++......... OOOOOOOOOOOOOOOOOOO",
"OOOOOOOOOOOOOOOO .++..........++++......... OOOOOOOOOOOOOOOOOOOO",
"OOOOOOOOOOOOOOOO ++++..........++.......... OOOOOOOOOOOOOOOOOOOO",
"OOOOOOOOOOOOOOOOO ++++.................... OOOOOOOOOOOOOOOOOOOOO",
"OOOOOOOOOOOOOOOOOO                        OOOOOOOOOOOOOOOOOOOOOO",
"OOOOOOOOOOOOOOOOOOOO XXXX    XXXX    XXX  OOOOOOOOOOOOOOOOOOOOOO",
"OOOOOOOOOOOOOOOOOOOO Xoooo + oooo + oXXXX OOOOOOOOOOOOOOOOOOOOOO",
"OOOOOOOOOOOOOOOOOOOO Xoooo   oooo   ooooo OOOOOOOOOOOOOOOOOOOOOO",
"OOOOOOOOOOOOOOOOOOOO  ooooooooooooooooooo OOOOOOOOOOOOOOOOOOOOOO",
"OOOOOOOOOOOOOOOOOOOOO ooooooooooooooo ooo OOOOOOOOOOOOOOOOOOOOOO",
"OOOOOOOOOOOOOOOOOOOOO oo oooooooooooo ooX OOOOOOOOOOOOOOOOOOOOOO",
"OOOOOOOOOOOOOOOOOOOOO  o oooooooooooo  o  OOOOOOOOOOOOOOOOOOOOOO",
"OOOOOOOOOOOOOOOOOOOOOO   ooooooooooooo   OOOOOOOOOOOOOOOOOOOOOOO",
"OOOOOOOOOOOOOOOOOOOOOO XXoooooooooooooX OOOOOOOOOOOOOOOOOOOOOOOO",
"OOOOOOOOOOOOOOOOOOOOOO  XoooooooooooooX  OOOOOOOOOOOOOOOOOOOOOOO",
"OOOOOOOOOOOOOOOOOOOOOOO XXooooooooooooXX OOOOOOOOOOOOOOOOOOOOOOO",
"OOOOOOOOOOOOOOOOOOOOOOO XXXoooooooooooXX OOOOOOOOOOOOOOOOOOOOOOO",
"OOOOOOOOOOOOOOOOOOOOOO  XXXXooo oooooXXX   OOOOOOOOOOOOOOOOOOOOO",
"OOOOOOOOOOOOOOOOOOOOO XXXXXXXXX XXXXXXXXXX  OOOOOOOOOOOOOOOOOOOO",
"OOOOOOOOOOOOOOOOOOOO XXXXXXXXXX  XXXXXXXXXX OOOOOOOOOOOOOOOOOOOO",
"OOOOOOOOOOOOOOOOOOOO                        OOOOOOOOOOOOOOOOOOOO",
"OOOOOOOOOOOOOOOOOOOOOOOOOOOOOOOOOOOOOOOOOOOOOOOOOOOOOOOOOOOOOOOO",
"OOOOOOOOOOOOOOOOOOOOOOOOOOOOOOOOOOOOOOOOOOOOOOOOOOOOOOOOOOOOOOOO",
"OOOOOOOOOOOOOOOOOOOOOOOOOOOOOOOOOOOOOOOOOOOOOOOOOOOOOOOOOOOOOOOO",
"OOOOOOOOOOOOOOOOOOOOOOOOOOOOOOOOOOOOOOOOOOOOOOOOOOOOOOOOOOOOOOOO",
"OOOOOOOOOOOOOOOOOOOOOOOOOOOOOOOOOOOOOOOOOOOOOOOOOOOOOOOOOOOOOOOO",
"OOOOOOOOOOOOOOOOOOOOOOOOOOOOOOOOOOOOOOOOOOOOOOOOOOOOOOOOOOOOOOOO",
"OOOOOOOOOOOOOOOOOOOOOOOOOOOOOOOOOOOOOOOOOOOOOOOOOOOOOOOOOOOOOOOO",
"OOOOOOOOOOOOOOOOOOOOOOOOOOOOOOOOOOOOOOOOOOOOOOOOOOOOOOOOOOOOOOOO",
"OOOOOOOOOOOOOOOOOOOOOOOOOOOOOOOOOOOOOOOOOOOOOOOOOOOOOOOOOOOOOOOO",
"OOOOOOOOOOOOOOOOOOOOOOOOOOOOOOOOOOOOOOOOOOOOOOOOOOOOOOOOOOOOOOOO",
"OOOOOOOOOOOOOOOOOOOOOOOOOOOOOOOOOOOOOOOOOOOOOOOOOOOOOOOOOOOOOOOO",
"OOOOOOOOOOOOOOOOOOOOOOOOOOOOOOOOOOOOOOOOOOOOOOOOOOOOOOOOOOOOOOOO",
"OOOOOOOOOOOOOOOOOOOOOOOOOOOOOOOOOOOOOOOOOOOOOOOOOOOOOOOOOOOOOOOO",
"OOOOOOOOOOOOOOOOOOOOOOOOOOOOOOOOOOOOOOOOOOOOOOOOOOOOOOOOOOOOOOOO",
"OOOOOOOOOOOOOOOOOOOOOOOOOOOOOOOOOOOOOOOOOOOOOOOOOOOOOOOOOOOOOOOO"
};
