/* XPM */
static char *_9d2c2e838e249a1a175fc930c6b6d7cK8ZTQUl6QGJbzxYu[] = {
/* columns rows colors chars-per-pixel */
"64 64 6 1 ",
"  c black",
". c #BA6156",
"X c #F0F726",
"o c #F2A65E",
"O c #93E6CC",
"+ c white",
/* pixels */
"OOOOOOOOOOOOOOOOOOOOOOOOOOOOOOOOOOOOOOOOOOOOOOOOOOOOOOOOOOOOOOOO",
"OOOOOOOOOOOOOOOOOOOOOOOOOOOOOOOOOOOOOOOOOOOOOOOOOOOOOOOOOOOOOOOO",
"OOOOOOOOOOOOOOOOOOOOOOOOOOOOOOOOOOOOOOOOOOOOOOOOOOOOOOOOOOOOOOOO",
"OOOOOOOOOOOOOOOOOOOOOOOOOOOOOOOOOOOOOOOOOOOOOOOOOOOOOOOOOOOOOOOO",
"OOOOOOOOOOOOOOOOOOOOOOOOOOOOOOOOOOOOOOOOOOOOOOOOOOOOOOOOOOOOOOOO",
"OOOOOOOOOOOOOOOOOOOOOOOOOOOOOOOOOOOOOOOOOOOOOOOOOOOOOOOOOOOOOOOO",
"OOOOOOOOOOOOOOOOOOOOOOOOOOOOOOOOOOOOOOOOOOOOOOOOOOOOOOOOOOOOOOOO",
"OOOOOOOOOOOOOOOOOOOOOOOOOOOOOOOOOOOOOOOOOOOOOOOOOOOOOOOOOOOOOOOO",
"OOOOOOOOOOOOOOOOOOOOOOOOOOOOOOOOOOOOOOOOOOOOOOOOOOOOOOOOOOOOOOOO",
"OOOOOOOOOOOOOOOOOOOOOOOOOOOOOOOOOOOOOOOOOOOOOOOOOOOOOOOOOOOOOOOO",
"OOOOOOOOOOOOOOOOOOOOOOOOOOOOOOOOOOOOOOOOOOOOOOOOOOOOOOOOOOOOOOOO",
"OOOOOOOOOOOOOOOOOOOOOOOOOOOOOOOOOOOOOOOOOOOOOOOOOOOOOOOOOOOOOOOO",
"OOOOOOOOOOOOOOOOOOOOOOOOOOOOOOOOOOOOOOOOOOOOOOOOOOOOOOOOOOOOOOOO",
"OOOOOOOOOOOOOOOOOOOOOOOOOOOOOOOOOOOOOOOOOOOOOOOOOOOOOOOOOOOOOOOO",
"OOOOOOOOOOOOOOOOOOOOOOOOOO        OOOOOOOOOOOOOOOOOOOOOOOOOOOOOO",
"OOOOOOOOOOOOOOOOOOOOOOO   XXX++XXX   OOOOOOOOOOOOOOOOOOOOOOOOOOO",
"OOOOOOOOOOOOOOOOOOOOO  XXXXX++++XXXXXX OOOOOOOOOOOOOOOOOOOOOOOOO",
"OOOOOOOOOOOOOOOOOOOO XXXXXX++++++XXXXXX OOOOOOOOOOOOOOOOOOOOOOOO",
"OOOOOOOOOOOOOOOOOOO XXXXXXX++++++XXXXXXX OOOOOOOOOOOOOOOOOOOOOOO",
"OOOOOOOOOOOOOOOOOO XXXXXXXXX++++XXXXXXX++ OOOOOOOOOOOOOOOOOOOOOO",
"OOOOOOOOOOOOOOOOO XXXXXXXXXXX++XXXXXXX++++ OOOOOOOOOOOOOOOOOOOOO",
"OOOOOOOOOOOOOOOO XXXXXXXXXXXXXXXXXXXX++++++ OOOOOOOOOOOOOOOOOOOO",
"OOOOOOOOOOOOOOOO XXXXXXXXXXXXXXXXXXXX++++++ OOOOOOOOOOOOOOOOOOOO",
"OOOOOOOOOOOOOOO XXXXXXXXXXXXXXXXXXXXXX++++XX OOOOOOOOOOOOOOOOOOO",
"OOOOOOOOOOOOOOO XXXXXXXXXXXXX++XXXXXXXX++XXX OOOOOOOOOOOOOOOOOOO",
"OOOOOOOOOOOOOOO XXXX++XXXXXX++++XXXXXXXXXXXX OOOOOOOOOOOOOOOOOOO",
"OOOOOOOOOOOOOOO XXX++++XXXX++++++XXXXXXXXXXX OOOOOOOOOOOOOOOOOOO",
"OOOOOOOOOOOOOOO XX++++++XXX++++++XXXXXXXXXXX OOOOOOOOOOOOOOOOOOO",
"OOOOOOOOOOOOOOO XX++++++XXXX++++XXXXXXXXXXXX OOOOOOOOOOOOOOOOOOO",
"OOOOOOOOOOOOOOOO XX++++XXXXXX++XXXXXXXXXXXX OOOOOOOOOOOOOOOOOOOO",
"OOOOOOOOOOOOOOOO XXX++XXXXXXXXXXXXXXXXXXXXX OOOOOOOOOOOOOOOOOOOO",
"OOOOOOOOOOOOOOOOO XXXXXXXXXXXXXXXXXXXXXXXX OOOOOOOOOOOOOOOOOOOOO",
"OOOOOOOOOOOOOOOOOO                        OOOOOOOOOOOOOOOOOOOOOO",
"OOOOOOOOOOOOOOOOOOOO .... +  ....+   ...  OOOOOOOOOOOOOOOOOOOOOO",
"OOOOOOOOOOOOOOOOOOOO .oooo   oooo   o.... OOOOOOOOOOOOOOOOOOOOOO",
"OOOOOOOOOOOOOOOOOOOO .oooo   oooo   ooooo OOOOOOOOOOOOOOOOOOOOOO",
"OOOOOOOOOOOOOOOOOOOO  ooooooooooooooooooo OOOOOOOOOOOOOOOOOOOOOO",
"OOOOOOOOOOOOOOOOOOOOO ooooooooooooooo ooo OOOOOOOOOOOOOOOOOOOOOO",
"OOOOOOOOOOOOOOOOOOOOO oo oooooooooooo oo. OOOOOOOOOOOOOOOOOOOOOO",
"OOOOOOOOOOOOOOOOOOOOO  o oooooooooooo  o  OOOOOOOOOOOOOOOOOOOOOO",
"OOOOOOOOOOOOOOOOOOOOOO   ooooooooooooo   OOOOOOOOOOOOOOOOOOOOOOO",
"OOOOOOOOOOOOOOOOOOOOOO ..ooooooooooooo. OOOOOOOOOOOOOOOOOOOOOOOO",
"OOOOOOOOOOOOOOOOOOOOOO  .ooooooooooooo.  OOOOOOOOOOOOOOOOOOOOOOO",
"OOOOOOOOOOOOOOOOOOOOOOO ..oooooooooooo.. OOOOOOOOOOOOOOOOOOOOOOO",
"OOOOOOOOOOOOOOOOOOOOOOO ...ooooooooooo.. OOOOOOOOOOOOOOOOOOOOOOO",
"OOOOOOOOOOOOOOOOOOOOOO  ....ooo ooooo...   OOOOOOOOOOOOOOOOOOOOO",
"OOOOOOOOOOOOOOOOOOOOO ......... ..........  OOOOOOOOOOOOOOOOOOOO",
"OOOOOOOOOOOOOOOOOOOO ..........  .......... OOOOOOOOOOOOOOOOOOOO",
"OOOOOOOOOOOOOOOOOOOO                        OOOOOOOOOOOOOOOOOOOO",
"OOOOOOOOOOOOOOOOOOOOOOOOOOOOOOOOOOOOOOOOOOOOOOOOOOOOOOOOOOOOOOOO",
"OOOOOOOOOOOOOOOOOOOOOOOOOOOOOOOOOOOOOOOOOOOOOOOOOOOOOOOOOOOOOOOO",
"OOOOOOOOOOOOOOOOOOOOOOOOOOOOOOOOOOOOOOOOOOOOOOOOOOOOOOOOOOOOOOOO",
"OOOOOOOOOOOOOOOOOOOOOOOOOOOOOOOOOOOOOOOOOOOOOOOOOOOOOOOOOOOOOOOO",
"OOOOOOOOOOOOOOOOOOOOOOOOOOOOOOOOOOOOOOOOOOOOOOOOOOOOOOOOOOOOOOOO",
"OOOOOOOOOOOOOOOOOOOOOOOOOOOOOOOOOOOOOOOOOOOOOOOOOOOOOOOOOOOOOOOO",
"OOOOOOOOOOOOOOOOOOOOOOOOOOOOOOOOOOOOOOOOOOOOOOOOOOOOOOOOOOOOOOOO",
"OOOOOOOOOOOOOOOOOOOOOOOOOOOOOOOOOOOOOOOOOOOOOOOOOOOOOOOOOOOOOOOO",
"OOOOOOOOOOOOOOOOOOOOOOOOOOOOOOOOOOOOOOOOOOOOOOOOOOOOOOOOOOOOOOOO",
"OOOOOOOOOOOOOOOOOOOOOOOOOOOOOOOOOOOOOOOOOOOOOOOOOOOOOOOOOOOOOOOO",
"OOOOOOOOOOOOOOOOOOOOOOOOOOOOOOOOOOOOOOOOOOOOOOOOOOOOOOOOOOOOOOOO",
"OOOOOOOOOOOOOOOOOOOOOOOOOOOOOOOOOOOOOOOOOOOOOOOOOOOOOOOOOOOOOOOO",
"OOOOOOOOOOOOOOOOOOOOOOOOOOOOOOOOOOOOOOOOOOOOOOOOOOOOOOOOOOOOOOOO",
"OOOOOOOOOOOOOOOOOOOOOOOOOOOOOOOOOOOOOOOOOOOOOOOOOOOOOOOOOOOOOOOO",
"OOOOOOOOOOOOOOOOOOOOOOOOOOOOOOOOOOOOOOOOOOOOOOOOOOOOOOOOOOOOOOOO"
};
