/* XPM */
static char *_167c383de1f488ced0a9b2a7208e378xXBLFISKeWZn0BT4[] = {
/* columns rows colors chars-per-pixel */
"64 64 6 1 ",
"  c black",
". c #43434F",
"X c #606070",
"o c #7E7E8F",
"O c #93E6CC",
"+ c white",
/* pixels */
"OOOOOOOOOOOOOOOOOOOOOOOOOOOOOOOOOOOOOOOOOOOOOOOOOOOOOOOOOOOOOOOO",
"OOOOOOOOOOOOOOOOOOOOOOOOOOOOOOOOOOOOOOOOOOOOOOOOOOooOOOOOOOOOOOO",
"OOOOOOooooOOOOOOOOOOOOOOOOOOOOOOOOOOOOOOOOOOOOOOOOOoooOOOOOOOOOO",
"OOOOOOOOooooOOOOOOOOOooOOOOOOOOOOOOOOOOOOOOOOOOOOOOoooooOOOOOOOO",
"OOOOOOOOoooooOOOOOOooooOOOOOOOOOOOOOOOOOOOOOOOOOOOOOoooooOOOOOOO",
"OOOOOOOOOooooOOOOooooooOOOOOOOOOOOOOOOOOOOOOOOOOOOOOOooooooOOOOO",
"OOOOOOOOOOoooOOOoooooooOOOOOOOOOOOOOOOOOOOOOOOOOOOOOOOoooooooOOO",
"OOOOOOOOOOXooOOOooooXXoOOOOOOOOOOOOOOOOOOOOOOOOOOOOOOOOooooooOOO",
"OOOOOOOOOOXXoOOoooOoXXoOOOOOOOOOOOOOOOOOOOOOOOOOOOOOOOOoooooooOO",
"OOOOOOOOOOXXoOooOOOoXXoOOOOOOOOOOOOOOOOOOOOOOOOOOOOOOOOOooooooOO",
"OOOOOOOOOOXXoOOOOOOoXXoOOOOOOOOOOOOOOOOOOOOOOOOOOOOOOOOOOoooooOO",
"OOOOOOOOOOXXoOoooooooooOOOOOOOOOOOOOOOOOOOOOOOOOOOOOOOOOOooooooO",
"OOOOOOOOOOXXoooooooooooOOOOOOOOOOOOOOOOOOOOOOOOOOOOOOOOOOOoooooO",
"OOOOOOOOOOooooooooooooooOOOOOOOOOOOOOOOOOOOOOOOOOOOOOOOOOOOooooo",
"OOOOOOOOOOoooooooooooooooOOOOOOOOOOOOOOOOOOOOOOOOOOOOOOOOOOooooo",
"OOOOOOOOOOoooooo    ooooooOOOOOOOOOOOOOOOOOOOOOOOOOOOOOOOOOooooo",
"OOOOOOOOOOoooo   XXXXooooooOOOOOOOOOOOOOOOOOOOOOOOOOOOOOOOOooooo",
"OOOOOOOOOOoooo XXooooooooooooOOOOOOOOOOOOOOOOOOOOOOOOOOOOOOOoooo",
"OOOOOOOOoooooo XooXXooooooooooOOOOOOOOOOOOOOooooooOOOOOOOOOOoooo",
"OOOOOoooooooooXoooooXooooooooooOOOOOOOoooooooooooooooOOOOOOOoooo",
"...ooooooooooooooooooooooooooooooooooooooooooooooooooooOOOOooooo",
"oooooooooooooooooXooooooooooooooooooooooooooooooooooooooooOooooo",
"OOOoooooooooooXXXXoooooooooooooooooooooooooooooooooooooooooooooo",
"OOOO+O+O+O+O+OOOXooooooooooooooooooooooooooooooooooooooooooooooo",
"OOOOOOOOOOOOOOOXXooooooooooooooooooooooooooooooooooooooooooooooo",
"OOOOOOOOOOo+o+oooooooooooooooooooooooooooooooooooooooooooooooooX",
"OOoo+o+o+oooooooooooooooooooooooooooooooooooooooooooooooooooooXX",
"OOOXoooooooooooooooooooooooooooooooooooooooooooooooooooooooooXXO",
"OOOOOOOoooooooooOOXXXXooooooooooooooooooooooooooooooooooooooXXOO",
"OOOOOOOOOOOOOOOOOOOOoXXooooooooooooooooooooooooooooooooooooXXOOO",
"OOOOOOOOOOOOOOOOOOOOOOXooooooooooooooooooXoooooooooooooooooXOOOO",
"OOOOOOOOOOOOOOOOOOOOOOXXoooooooooooooooooXXoooooooooooooooooOOOO",
"OOOOOOOOOOOOOOOOOOOOOOOXooooooooooooooooooXooooooooooooooooOOOOO",
"OOOOOOOOOOOOOOOOOOOOOOOXXoooooooooooooooooXooooooooooooooooOOOOO",
"OOOOOOOOOOOOOOOOOOOOOOX.XooooooooooooooooooXoooooooooooooooooOOO",
"OOOOOOOOOOOOOOOOOOOOOOX.XooooooooooooooooooXXooooooooooooooooOOO",
"OOOOOOOOOOOOOOOOOOOOOO..XoooooooooooooooooooXXooooooooooooooooOO",
"OOOOOOOOOOOOOOOOOOOOOO..XXoooooooooooooooooooXXoooooooooooooooOO",
"OOOOOOOOOOOOOOOOOOOOOO..XXooooooooooooooooooooXXoooooooooooooooO",
"OOOOOOOOOOOOOOOOOOOOOOO..XoooooooooooooooooooooXXooooooooooooooO",
"OOOOOOOOOOOOOOOOOOOOOOO..XooooooooooooooooooooXXXXoooooooooooooO",
"OOOOOOOOOOOOOOOOOOOOOOO..XooooooooooooooooXXXXXXXXoooooooooooooO",
"OOOOOOOOOOOOOOOOOOOOOOO..ooooooooXXXXXXXXXXXXXX.XXXoooooooooooOO",
"OOOOOOOOOOOOOOOOOOOOOOO..oooooooOOOXXXXXXXXO.....XXoooooooooooOO",
"OOOOOOOOOOOOOOOOOOOOOOO..oooooooOOOOOOOOOOOO.....XXoooooooooooOO",
"OOOOOOOOOOOOOOOOOOOOOOO.oooooooOOOOOOOOOOOOO.......ooooooooooXOO",
"OOOOOOOOOOOOOOOOOOOOOOO.oooooooOOOOOOOOOOOOOO......ooooooooooXOO",
"OOOOOOOOOOOOOOOOOOOOOOO.oooooooOOOOOOOOOOOOOO.......oooooooooXOO",
"OOOOOOOOOOOOOOOOOOOOOOOoooooooOOOOOOOOOOOOOOOO......ooooooooXXOO",
"OOOOOOOOOOOOOOOOOOOOOOOooooo..OOOOOOOOOOOOOOOO......ooooooooXOOO",
"OOOOOOOOOOOOOOOOOOOOOOoooooo...OOOOOOOOOOOOOOOO.....ooooooooXOOO",
"OOOOOOOOOOOOOOOOOOOOOOoooooo...OOOOOOOOOOOOOOOO.....oooooooXXOOO",
"OOOOOOOOOOOOOOOOOOOOOoooooo....OOOOOOOOOOOOOOOOO....oooooooXXOOO",
"OOOOOOOOOOOOOOOOOOOOOoooooo....OOOOOOOOOOOOOOOOOO...ooooooXXOOOO",
"OOOOOOOOOOOOOOOOOOOOOooooo.....OOOOOOOOOOOOOOOOOOO..ooooooXXOOOO",
"OOOOOOOOOOOOOOOOOOOOoooooo.....OOOOOOOOOOOOOOOOOOO..oooooXXOOOOO",
"OOOOOOOOOOOOOOOOOOOOooooooO....OOOOOOOOOOOOOOOOOOOOooooooXXOOOOO",
"OOOOOOOOOOOOOOOOOOOOoooooOOO....OOOOOOOOOOOOOOOOOOOoooooXXOOOOOO",
"OOOOOOOOOOOOOOOOOOOOooooOOOO....OOOOOOOOOOOOOOOOOOOooooXXoOOOOOO",
"OOOOOOOOOOOOOOOOOOOOooooOOOO....OOOOOOOOOOOOOOOOOOOoooXXXOOOOOOO",
"OOOOOOOOOOOOOOOOOOOOoooOOOO.....OOOOOOOOOOOOOOOOOOoooXXXXOOOOOOO",
"OOOOOOOOOOOOOOOOOOOOOOOOOOO.....OOOOOOOOOOOOOOOOOOooXXXXOOOOOOOO",
"OOOOOOOOOOOOOOOOOOOOOOOOOO......OOOOOOOOOOOOOOOOOOXXXXXOOOOOOOOO",
"OOOOOOOOOOOOOOOOOOOOOOOOOO.....OOOOOOOOOOOOOOOOOOXXXXOOOOOOOOOOO"
};
