/* XPM */
static char *_a4da46565c34bd0fbaa74cc4859d8ec2Z7gNJDNBAIKt2N6[] = {
/* columns rows colors chars-per-pixel */
"64 64 8 1 ",
"  c black",
". c #43434F",
"X c #606070",
"o c #B0305C",
"O c #7E7E8F",
"+ c #93E6CC",
"@ c #FFFFEB",
"# c white",
/* pixels */
"+++++++++++++++++OXOO+++++++++++++++++++++++++++++++++++++++++++",
"+++++++++++++++++OOXOO++++++++++++++++++++++++++++++++++++++++++",
"++++++++++++++++++OOXOO+++++++++++++++++++++++++++++++++++++++++",
"+++++++++++++++++++OXXO+++++++++++++++++++++++++++++++++++++++++",
"+++++OOOOOOOO++++++OXXO+++++++++++++++++++++++++++++++++++++++++",
"+++++OOOOOOOO++++++OXXO+++++++++++++++++++++++++++++++++++++++++",
"++++++++++OOO++++++OXXO++++++++++++++++++++++OOOOOOOOOOOO+++++++",
"++++++++++XOO++++++OXXO+++++++++++++++++++++OOOOOOOOOOOOOOO+++++",
"++++++++++XXO++++++OXXO+++++++++++++++++++++OOOOOOOOOOOOOOOO++++",
"++++++++++XXO++++++OXXO++++++++++++++++++++++++++++OOOOOOOOOO+++",
"++++++++++XXO++++++OXXO++++++++++++++++++++++++++++++OOOOOOOO+++",
"++++++++++XXO+OOOOOOOOO++++++++++++++++++++++++++++++++OOOOOOO++",
"++++++++++XXOOOOOOOOOOO+++++++++++++++++++++++++++++++++OOOOOOO+",
"++++++++++OOOOOOOOOOOOOO+++++++++++++++++++++++++++++++++OOOOOO+",
"++++++++++OOOOOOOOOOOOOOO+++++++++++++++++++++++++++++++++OOOOOO",
"++++++++++OOOOOO    OOOOOO+++++++++++++++++++++++++++++++++OOOOO",
"++++++++++OOOO   o@XXOOOOOO++++++++++++++++++++++++++++++++OOOOO",
"++++++++++OOOO @@oXOOOOOOOOOO+++++++++++++++++++++++++++++++OOOO",
"++++++++OOOOOO @@XXOOOOOOOOOOO++++++++++++++OOOOOO++++++++++OOOO",
"+++++OOOOOOOOOOXXOOOOOOOOOOOOOO+++++++OOOOOOOOOOOOOOO+++++++OOOO",
"...OOOOOOOOOOOOOOOOOOOOOOOOOOOOOOOOOOOOOOOOOOOOOOOOOOOO++++OOOOO",
"OOOOOOOOOOOOOOOOOXOOOOOOOOOOOOOOOOOOOOOOOOOOOOOOOOOOOOOOOO+OOOOO",
"+++OOOOOOOOOOOXXXOOOOOOOOOOOOOOOOOOOOOOOOOOOOOOOOOOOOOOOOOOOOOOO",
"++++#+#+#+#+#++XOOOOOOOOOOOOOOOOOOOOOOOOOOOOOOOOOOOOOOOOOOOOOOOO",
"+++++++++++#+#XOOOOOOOOOOOOOOOOOOOOOOOOOOOOOOOOOOOOOOOOOOOOOOOOO",
"++OO#+#+#OOOOOOOOOOOOOOOOOOOOOOOOOOOOOOOOOOOOOOOOOOOOOOOOOOOOOOX",
"++OOOOOOOOOOOOOOOOOOOOOOOOOOOOOOOOOOOOOOOOOOOOOOOOOOOOOOOOOOOOXX",
"++++OOOOOOOOOOOOOOOOOOOOOOOOOOOOOOOOOOOOOOOOOOOOOOOOOOOOOOOOOXX+",
"++++++++++++++++++XXXXOOOOOOOOOOOOOOOOOOOOOOOOOOOOOOOOOOOOOOXX++",
"++++++++++++++++++++OXXOOOOOOOOOOOOOOOOOOOOOOOOOOOOOOOOOOOOXX+++",
"++++++++++++++++++++++XOOOOOOOOOOOOOOOOOOXOOOOOOOOOOOOOOOOOX++++",
"++++++++++++++++++++++XXOOOOOOOOOOOOOOOOOXXOOOOOOOOOOOOOOOOO++++",
"+++++++++++++++++++++++XOOOOOOOOOOOOOOOOOOXOOOOOOOOOOOOOOOO+++++",
"+++++++++++++++++++++++XXOOOOOOOOOOOOOOOOOXOOOOOOOOOOOOOOOO+++++",
"++++++++++++++++++++++X.XOOOOOOOOOOOOOOOOOOXOOOOOOOOOOOOOOOOO+++",
"+++++++++++++++++++++XX.XOOOOOOOOOOOOOOOOOOXXOOOOOOOOOOOOOOOO+++",
"+++++++++++++++++++++X..XOOOOOOOOOOOOOOOOOOOXXOOOOOOOOOOOOOOOO++",
"++++++++++++++++++++X...XXOOOOOOOOOOOOOOOOOOOXXOOOOOOOOOOOOOOO++",
"+++++++++++++++++++.....XXOOOOOOOOOOOOOOOOOOOOXXOOOOOOOOOOOOOOO+",
"++++++++++++++++++.......XOOOOOOOOOOOOOOOOOOOOOXXOOOOOOOOOOOOOO+",
"+++++++++++++++++........XOOOOOOOOOOOOOOOOOOOOXXXXOOOOOOOOOOOOO+",
"++++++++++++++++.........XOOOOOOOOOOOOOOOOXXXXXXXXOOOOOOOOOOOOO+",
"+++++++++++++++..........XXOOOOOOXXXXXXXXXXXXXX.XXXOOOOOOOOOOO++",
"+++++++++++++++.........XXXOOOOO+++XXXXXXXX......XXOOOOOOOOOOO++",
"++++++++++++++.........O++OOOOOO+++++++++........XXOOOOOOOOOOO++",
"+++++++++++++.........O+++OOOOO++++++++++........X+OOOOOOOOOOX++",
"+++++++++++++.........++++OOOOO++++++++++........++OOOOOOOOOOX++",
"+++++++++++++........+++++OOOOO++++++++++........++OOOOOOOOOOX++",
"++++++++++++X.......++++++OOOOO++++++++++........+++OOOOOOOOXX++",
"++++++++++++X......+++++++OOOOO++++++++++.......++++OOOOOOOOX+++",
"++++++++++++X.....++++++++OOOOO++++++++++.......++++OOOOOOOOX+++",
"+++++++++++X....O+++++++++OOOO+++++++++++.......++++OOOOOOOXX+++",
"+++++++++++X..XX++++++++++OOOO+++++++++++......+++++OOOOOOOXX+++",
"+++++++++++X..X+++++++++++OOOO+++++++++++......+++++OOOOOOXX++++",
"+++++++++++XXXX+++++++++++OOOO+++++++++++.....++++++OOOOOOXX++++",
"++++++++++++X+++++++++++++OOOO+++++++++++.....++++++OOOOOXX+++++",
"++++++++++++++++++++++++++OOOO+++++++++++....++++++OOOOOOXX+++++",
"++++++++++++++++++++++++++OOOO+++++++++++....++++++OOOOOXX++++++",
"+++++++++++++++++++++++++++OOO+++++++++++...+++++++OOOOXXO++++++",
"+++++++++++++++++++++++++++OOO+++++++++++...+++++++OOOXXX+++++++",
"+++++++++++++++++++++++++++OOO++++++++++...+++++++OOOXXXX+++++++",
"+++++++++++++++++++++++++++OOO++++++++++..++++++++OOXXXX++++++++",
"++++++++++++++++++++++++++++OO++++++++++..++++++++XXXXX+++++++++",
"+++++++++++++++++++++++++++++O+++++++++..++++++++XXXX+++++++++++"
};
